<svg width="80" height="80" viewBox="0 0 80 80" fill="none" xmlns="http://www.w3.org/2000/svg">
<path d="M0 33.9225C0 32.7074 0.552359 31.5581 1.50122 30.799L37.5012 1.99903C38.9621 0.830326 41.0379 0.830324 42.4988 1.99902L78.4988 30.799C79.4476 31.5581 80 32.7074 80 33.9225V76C80 78.2091 78.2091 80 76 80H4C1.79086 80 0 78.2091 0 76V33.9225Z" fill="#79C132"/>
<rect x="15" y="10" width="50" height="50" rx="4" fill="#F0F0F0"/>
<path d="M0.00216492 33.8671C0.000725371 33.9112 0 33.9555 0 34V76C0 78.2091 1.79086 80 4 80H76C78.2091 80 80 78.2091 80 76V34C80 33.9555 79.9993 33.9112 79.9978 33.8671C79.9523 35.2071 79.1915 36.4245 77.9987 37.0507L41.8593 56.0238C40.6951 56.635 39.3049 56.635 38.1407 56.0238L2.00133 37.0507C0.808504 36.4245 0.0476985 35.2071 0.00216492 33.8671Z" fill="#91E044"/>
<path d="M0.00216492 33.8672C0.000725371 33.9113 0 33.9556 0 34V76C0 78.2092 1.79086 80 4 80H76C77.506 80 78.8176 79.1678 79.5 77.9381L38.1407 56.0239L2.00133 37.0507C0.808504 36.4245 0.0476985 35.2071 0.00216492 33.8672Z" fill="#A6F15D"/>
<path d="M51.9827 31.7127C51.877 34.1782 51.2666 36.138 50.1517 37.5923C49.0463 39.0369 47.5564 39.7592 45.6821 39.7592C44.8555 39.7592 44.1394 39.5811 43.5338 39.2247C42.9379 38.8684 42.4861 38.3579 42.1785 37.6934C41.2174 39.0417 39.963 39.7159 38.4155 39.7159C37.0121 39.7159 35.926 39.1236 35.157 37.939C34.3881 36.7544 34.0997 35.1894 34.2919 33.244C34.465 31.6549 34.8639 30.244 35.4886 29.0112C36.123 27.7689 36.9208 26.8154 37.882 26.1509C38.8432 25.4864 39.8813 25.1541 40.9963 25.1541C42.3708 25.1541 43.5434 25.4719 44.5142 26.1075L44.9396 26.3984C45.2379 26.6025 45.403 26.9516 45.3712 27.3116L44.6873 35.0787C44.5911 35.8395 44.6728 36.4221 44.9324 36.8266C45.2015 37.2311 45.6244 37.4334 46.2011 37.4334C47.0854 37.4334 47.8256 36.9181 48.4215 35.8876C49.0174 34.8475 49.3442 33.4896 49.4019 31.8138C49.5653 28.4526 48.8877 25.8716 47.369 24.0706C45.8599 22.26 43.6203 21.3547 40.6502 21.3547C38.7951 21.3547 37.1419 21.8266 35.6905 22.7705C34.2391 23.7143 33.0953 25.0578 32.259 26.801C31.4228 28.5345 30.9518 30.5233 30.8461 32.7673C30.6923 36.1766 31.3747 38.8106 32.8934 40.6693C34.4121 42.5377 36.6853 43.4719 39.7131 43.4719C40.5109 43.4719 41.3471 43.3804 42.2218 43.1974C42.5381 43.1347 42.8386 43.0639 43.1235 42.9848C43.8465 42.7842 44.6529 43.1698 44.8324 43.8984C44.9528 44.3874 44.7545 44.9077 44.2941 45.1118C43.8292 45.3179 43.2826 45.4936 42.6543 45.6388C41.6643 45.8796 40.6647 46 39.6554 46C37.1179 46 34.9552 45.4848 33.1674 44.4543C31.3795 43.4334 30.0435 41.9213 29.1592 39.9181C28.2845 37.9246 27.9048 35.5409 28.0202 32.7673C28.1355 30.1091 28.7411 27.7255 29.8368 25.6164C30.9326 23.5072 32.4224 21.8796 34.3064 20.7335C36.1999 19.5778 38.3338 19 40.7079 19C43.1205 19 45.1967 19.5201 46.9365 20.5602C48.6762 21.5907 49.9786 23.069 50.8437 24.9952C51.7088 26.9213 52.0885 29.1605 51.9827 31.7127ZM37.4927 33.244C37.387 34.5152 37.4975 35.4831 37.8243 36.1477C38.1511 36.8026 38.6798 37.13 39.4103 37.13C39.8813 37.13 40.3282 36.923 40.7512 36.5088C41.1741 36.0947 41.5249 35.4976 41.8037 34.7175L42.4092 27.8844C42.0344 27.7592 41.6499 27.6966 41.2558 27.6966C40.1504 27.6966 39.2902 28.1685 38.675 29.1124C38.0694 30.0562 37.6754 31.4334 37.4927 33.244Z" fill="#E13B31"/>
</svg>
