<svg xmlns="http://www.w3.org/2000/svg">

      <symbol id="Rotate" viewBox="0 0 24 23" fill="none" 
            xmlns="http://www.w3.org/2000/svg">
            <path fill-rule="evenodd" clip-rule="evenodd" d="M4.31348 11.238L4.99324 5.66012L6.60063 6.90205C9.25535 3.90893 13.3147 3.05056 16.6255 5.60859C20.0759 8.27449 21.3479 13.5909 18.7613 16.9386C16.1747 20.2864 11.2807 20.8387 7.82981 18.1724C6.34559 17.0309 5.30782 15.4072 4.89885 13.5864L6.54117 13.1879C6.84781 14.6423 7.66647 15.9428 8.84828 16.8528C11.5477 18.9385 15.3773 18.5058 17.4005 15.8872C19.4237 13.2687 18.8763 9.45439 16.1763 7.3683C14.9738 6.42206 13.463 5.95721 11.9422 6.06547C10.4214 6.17373 9.00105 6.84724 7.96135 7.95311L9.54126 9.1738L4.31348 11.238Z" fill="#49494A"/>

      </symbol>

      <symbol id="Close" viewBox="0 0 26 26" fill="none" 
            xmlns="http://www.w3.org/2000/svg">
            <path d="M12.9109 25.6008C19.8152 25.6008 25.4122 20.0038 25.4122 13.0996C25.4122 6.19533 19.8152 0.598328 12.9109 0.598328C6.00667 0.598328 0.409668 6.19533 0.409668 13.0996C0.409668 20.0038 6.00667 25.6008 12.9109 25.6008Z" fill="#E86E59"/>
            <path d="M8.41064 17.6L12.9111 13.0996L17.4115 8.59912" stroke="white" stroke-miterlimit="10" stroke-linecap="round"/>
            <path d="M8.41064 8.59912L12.9111 13.0996L17.4115 17.6" stroke="white" stroke-miterlimit="10" stroke-linecap="round"/>
      </symbol>
      <symbol id="Search" viewBox="0 0 25 25" fill="none" 
            xmlns="http://www.w3.org/2000/svg">
            <circle cx="12.5" cy="12.5" r="10" fill="white" />
            <path d="M11.6167 8.01599C9.72726 8.01599 8.19531 9.54842 8.19531 11.4378C8.19531 13.3277 9.72726 14.8597 11.6167 14.8597C13.5066 14.8597 15.0383 13.3278 15.0383 11.4378C15.0384 9.54842 13.5067 8.01599 11.6167 8.01599ZM13.2701 12.2475H12.2651V13.2525C12.2651 13.6107 11.9749 13.9009 11.6167 13.9009C11.2585 13.9009 10.9683 13.6107 10.9683 13.2525V12.2475H9.96326C9.60509 12.2475 9.31483 11.9573 9.31483 11.5991C9.31483 11.2409 9.60509 10.9507 9.96326 10.9507H10.9683V9.94542C10.9683 9.58725 11.2585 9.297 11.6167 9.297C11.9749 9.297 12.2651 9.58725 12.2651 9.94542V10.9507H13.2701C13.6283 10.9507 13.9186 11.2409 13.9186 11.5991C13.9186 11.9573 13.6285 12.2475 13.2701 12.2475Z" fill="#70767D"/>
            <path d="M12.4999 0C5.59643 0 0 5.59654 0 12.4997C0 19.4028 5.59643 25 12.4998 25C19.4032 25 25 19.403 25 12.4997C25 5.59629 19.4032 0 12.4999 0ZM18.7867 18.438C18.5891 18.636 18.3301 18.7347 18.0709 18.7347C17.8117 18.7347 17.5528 18.636 17.3548 18.438L14.5093 15.5924C13.6896 16.1643 12.6931 16.5004 11.6179 16.5004C8.82215 16.5004 6.55594 14.234 6.55594 11.4383C6.55594 8.64264 8.82215 6.37646 11.6179 6.37646C14.4136 6.37646 16.6799 8.64264 16.6799 11.4381C16.6799 12.426 16.3959 13.3472 15.9066 14.1261L18.7866 17.0063C19.1823 17.4015 19.1823 18.0428 18.7867 18.438Z" fill="#70767D"/>
      </symbol>
      <symbol id="GDrive" viewBox="0 0 23 20" fill="none" 
            xmlns="http://www.w3.org/2000/svg">
            <path d="M22.2295 13.4844H6.90662L3.70312 19.6598H18.7558L22.2295 13.4844Z" fill="#3089F3"/>
            <path d="M7.56284 0.361572L0.229492 12.7124L3.70317 19.6598L10.7663 6.07384L7.56284 0.361572Z" fill="#00A76A"/>
            <path d="M14.5101 0.361572H7.56274L14.896 13.4844H22.2294L14.5101 0.361572Z" fill="#FDD446"/>
      </symbol>
      <symbol id="DropBox" viewBox="0 0 23 22" fill="none" 
            xmlns="http://www.w3.org/2000/svg">
            <path d="M10.438 11.9672L4.79951 8.33101C4.61651 8.213 4.37848 8.2255 4.20886 8.362L0.418021 11.4126C0.149534 11.6287 0.171326 12.0442 0.460965 12.231L6.09949 15.8671C6.28248 15.9851 6.52052 15.9726 6.69013 15.8361L10.481 12.7856C10.7495 12.5695 10.7277 12.1539 10.438 11.9672Z" fill="#1587EA"/>
            <path d="M11.9781 12.7855L15.7689 15.8361C15.9386 15.9726 16.1766 15.9851 16.3596 15.8671L21.9981 12.2309C22.2877 12.0441 22.3095 11.6286 22.041 11.4126L18.2502 8.362C18.0805 8.2255 17.8425 8.213 17.6595 8.33101L12.021 11.9672C11.7314 12.1539 11.7096 12.5695 11.9781 12.7855Z" fill="#1587EA"/>
            <path d="M10.481 3.23666L6.69013 0.186098C6.52047 0.0495916 6.28248 0.037097 6.09949 0.155107L0.460965 3.79124C0.171326 3.97802 0.149534 4.39354 0.418021 4.60959L4.20886 7.66015C4.37852 7.79666 4.61651 7.80915 4.79951 7.69114L10.438 4.05501C10.7277 3.86823 10.7495 3.45271 10.481 3.23666Z" fill="#1587EA"/>
            <path d="M21.9981 3.79124L16.3596 0.155107C16.1766 0.037097 15.9385 0.0495916 15.7689 0.186098L11.9781 3.23666C11.7096 3.45271 11.7314 3.86823 12.021 4.05501L17.6596 7.69114C17.8426 7.80915 18.0806 7.79666 18.2503 7.66015L22.0411 4.60959C22.3095 4.39349 22.2878 3.97797 21.9981 3.79124Z" fill="#1587EA"/>
            <path d="M10.953 13.3211L6.70781 16.7075C6.55394 16.8302 6.33893 16.8411 6.17355 16.7344L5.12719 16.0596C4.82216 15.8629 4.42041 16.0819 4.42041 16.4448V16.8096C4.42041 16.9699 4.50413 17.1185 4.64118 17.2016L10.9614 21.0329C11.1074 21.1214 11.2905 21.1214 11.4366 21.0329L17.7568 17.2016C17.8938 17.1185 17.9775 16.9699 17.9775 16.8096V16.484C17.9775 16.1211 17.5757 15.9021 17.2708 16.0988L16.2857 16.734C16.1201 16.8409 15.9046 16.8298 15.7507 16.7065L11.5255 13.3217C11.3583 13.1877 11.1205 13.1875 10.953 13.3211Z" fill="#1587EA"/>
      </symbol>
      <symbol id="Device" viewBox="0 0 23 20" fill="none" 
            xmlns="http://www.w3.org/2000/svg">
            <path d="M20.9658 7.11167V3.01761C20.9658 1.83992 20.0068 0.880859 18.8291 0.880859H2.47757C1.29988 0.880859 0.34082 1.83992 0.34082 3.01761V13.8684C0.34082 15.0468 1.29988 16.0059 2.47757 16.0059H8.43957L8.02707 18.0684H7.21582C6.83563 18.0684 6.52832 18.3764 6.52832 18.7559C6.52832 19.1354 6.83563 19.4434 7.21582 19.4434H14.0908C14.471 19.4434 14.7783 19.1354 14.7783 18.7559C14.7783 18.3764 14.471 18.0684 14.0908 18.0684H13.2796L12.8671 16.0059H15.4658V17.6909C15.4658 18.6569 16.2523 19.4434 17.2183 19.4434H20.5884C21.5543 19.4434 22.3408 18.6569 22.3408 17.6909V8.8208C22.3408 7.98411 21.7509 7.28492 20.9658 7.11167ZM9.42957 18.0684L9.84207 16.0059H11.4653L11.8778 18.0684H9.42957ZM15.4658 14.6309H12.0283H9.27832H2.47757C2.05751 14.6309 1.71582 14.2892 1.71582 13.8691V11.8809H15.4658V14.6309ZM15.4658 8.8208V11.1934H1.71582V3.01761C1.71582 2.59755 2.05751 2.25586 2.47757 2.25586H18.8284C19.2491 2.25586 19.5908 2.59755 19.5908 3.01761V7.06836H17.2183C16.2523 7.06836 15.4658 7.85486 15.4658 8.8208ZM20.9658 17.6909C20.9658 17.8985 20.7967 18.0684 20.5884 18.0684H17.2183C17.0099 18.0684 16.8408 17.8985 16.8408 17.6909V17.3499H20.9658V17.6909ZM20.9658 16.6624H16.8408V9.84998H20.9658V16.6624ZM20.9658 9.1618H16.8408V8.8208C16.8408 8.61317 17.0099 8.44336 17.2183 8.44336H20.5884C20.7967 8.44336 20.9658 8.61317 20.9658 8.8208V9.1618Z" fill="white"/>
      </symbol>
      <symbol id="formatPdf" viewBox="0 0 70 88" fill="none" 
            xmlns="http://www.w3.org/2000/svg">
            <path fill-rule="evenodd" clip-rule="evenodd" d="M46.3054 0.162122C46.2908 0.360646 46.3054 32.1596 46.3054 32.1596C46.3054 32.1596 69.438 32.0314 69.582 32.1596C69.582 14.4859 59.1631 0.162122 46.3054 0.162122ZM0 88H69.5747V40.0452H38.6316V0H0V88ZM12.8304 64.8236H14.3591C15.7879 64.8236 16.857 64.545 17.5665 63.9877C18.2759 63.4205 18.6306 62.5996 18.6306 61.5249C18.6306 60.4403 18.3308 59.6393 17.7313 59.1219C17.1418 58.6044 16.2126 58.3457 14.9436 58.3457H12.8304V64.8236ZM23.3216 61.3608C23.3216 63.7091 22.5823 65.5052 21.1035 66.749C19.6347 67.9929 17.5415 68.6148 14.8237 68.6148H12.8304V76.3763H8.18429V54.5545H15.1834C17.8412 54.5545 19.8595 55.1267 21.2384 56.271C22.6272 57.4054 23.3216 59.102 23.3216 61.3608ZM45.638 65.2564C45.638 68.8486 44.6089 71.6 42.5506 73.5105C40.5023 75.421 37.5398 76.3763 33.663 76.3763H27.4582V54.5545H34.3375C37.9145 54.5545 40.6921 55.4948 42.6705 57.3755C44.6488 59.2562 45.638 61.8832 45.638 65.2564ZM40.812 65.3758C40.812 60.6891 38.7338 58.3457 34.5773 58.3457H32.1043V72.5552H34.0976C38.5739 72.5552 40.812 70.1621 40.812 65.3758ZM50.1792 76.3763H54.7504V67.7491H62.1842V63.9728H54.7504V58.3457H62.7387V54.5545H50.1792V76.3763Z" fill="#FFBA25"/>
      </symbol>
      <symbol id="arrow" viewBox="0 0 42 30" fill="none" 
            xmlns="http://www.w3.org/2000/svg">
            <path fill-rule="evenodd" clip-rule="evenodd" d="M0 19.4529H18.486L18.486 30L42 15.0007L18.4851 0V9.21036L0 9.21036L0 19.4544L0 19.4529Z" fill="#EA6E55" fill-opacity="0.8"/>
      </symbol>
      <symbol id="lock" viewBox="0 0 15 20" fill="none" 
            xmlns="http://www.w3.org/2000/svg">
            <path d="M14.5833 7.5H13.3333V5.83332C13.3333 2.6168 10.7166 0 7.5 0C4.28344 0 1.66668 2.6168 1.66668 5.83332V7.5H0.41668C0.186367 7.5 0 7.68637 0 7.91668V18.3334C0 19.2525 0.747461 20 1.66668 20H13.3334C14.2525 20 15 19.2525 15 18.3333V7.91668C15 7.68637 14.8136 7.5 14.5833 7.5ZM8.74758 16.204C8.76059 16.3216 8.72277 16.4396 8.64383 16.5279C8.56488 16.6162 8.45176 16.6667 8.33336 16.6667H6.66668C6.54828 16.6667 6.43516 16.6162 6.35621 16.5279C6.27727 16.4396 6.23941 16.3216 6.25246 16.204L6.51531 13.8404C6.08848 13.5299 5.83336 13.0387 5.83336 12.5C5.83336 11.5808 6.58082 10.8333 7.50004 10.8333C8.41926 10.8333 9.16672 11.5808 9.16672 12.5C9.16672 13.0387 8.9116 13.5299 8.48477 13.8404L8.74758 16.204ZM10.8333 7.5H4.16668V5.83332C4.16668 3.99535 5.66203 2.5 7.5 2.5C9.33797 2.5 10.8333 3.99535 10.8333 5.83332V7.5Z" fill="#959595"/>
      </symbol>
      <symbol id="Candy" viewBox="0 0 23 24" fill="none" 
            xmlns="http://www.w3.org/2000/svg">
            <path d="M9.99635 9.83182C10.8866 10.3025 11.7626 10.7647 12.6331 11.2241C12.6359 11.2438 12.6416 11.2523 12.6387 11.2607C12.5115 11.6046 12.6105 11.8075 12.9637 11.9174C13.7805 12.1682 14.3937 11.6638 14.5605 10.9676C14.7639 10.1334 14.5096 9.40061 13.9218 8.79748C13.2209 8.08161 12.3392 7.85614 11.367 8.00551C9.46504 8.30426 8.28374 9.81773 8.06896 11.4637C7.80614 13.4675 8.90266 15.6715 11.0109 16.6495C12.6613 17.4132 14.3344 17.371 15.9735 16.6438C18.1524 15.6771 19.4439 13.9776 19.8763 11.6525C20.4726 8.43109 18.7289 4.89685 15.4846 3.37211C14.0942 2.71543 12.6331 2.47305 11.1042 2.60551C7.46701 2.92117 3.81572 5.5028 2.82377 9.91355C2.31225 12.1823 2.58638 14.3863 3.58681 16.4747C5.16659 19.7666 7.79484 21.7676 11.3811 22.4384C14.4163 23.0049 17.2452 22.3454 19.848 20.7192C20.2946 20.4402 20.7015 20.102 21.1254 19.7919C21.1537 19.7694 21.1848 19.7469 21.2328 19.744C21.1367 19.854 21.0435 19.9667 20.9445 20.0738C19.0426 22.1199 16.7167 23.3938 13.9528 23.8448C7.65636 24.865 1.60856 20.753 0.271828 14.5441C-1.03664 8.45927 2.4903 2.41668 8.45048 0.548099C10.1857 0.00415262 11.9548 -0.131129 13.755 0.125343C16.0696 0.455092 18.1128 1.39079 19.8904 2.90144C20.3963 3.33265 20.7863 3.86532 21.1537 4.41209C22.1626 5.91428 22.79 7.56303 22.9511 9.36397C23.2421 12.6276 22.2389 15.4347 19.8283 17.6866C18.353 19.062 16.5839 19.868 14.5774 20.1161C12.1837 20.412 10.0076 19.854 8.11135 18.3574C6.34506 16.9708 5.32202 15.136 5.0705 12.9095C4.8105 10.5984 5.48311 8.57201 7.14201 6.92608C8.47592 5.60144 10.1207 4.92221 12.0085 4.97013C14.097 5.02367 15.7644 5.9171 16.8552 7.71804C17.72 9.14132 17.9263 10.683 17.2961 12.2556C16.7478 13.6225 15.7559 14.561 14.2863 14.8767C12.8705 15.1811 11.5733 14.8936 10.5192 13.848C9.47917 12.8165 9.26157 11.1987 9.9483 9.89946C9.96526 9.87973 9.97656 9.86282 9.99635 9.83182Z" fill="#EA6E55"/>
      </symbol>
      <symbol id="attention" viewBox="0 0 68 61" fill="none" 
            xmlns="http://www.w3.org/2000/svg">
            <path d="M33.999 42.866C32.0979 42.866 30.5044 44.4297 30.5044 46.2952C30.5044 48.1608 32.0979 49.7245 33.999 49.7245C35.8302 49.7245 37.4936 48.1608 37.4097 46.3775C37.4936 44.416 35.914 42.866 33.999 42.866Z" fill="#EA6E55"/>
            <path d="M66.3453 55.0193C68.5399 51.302 68.5539 46.8714 66.3732 43.1678L44.483 5.96694C42.3163 2.22217 38.4024 0 34.0131 0C29.6239 0 25.7099 2.23589 23.5433 5.95323L1.62506 43.1952C-0.555577 46.94 -0.541598 51.398 1.667 55.1154C3.84763 58.7915 7.74762 61 12.1089 61H55.8335C60.2087 61 64.1367 58.7641 66.3453 55.0193ZM61.5926 52.3308C60.3765 54.3883 58.2238 55.6092 55.8195 55.6092H12.0949C9.71858 55.6092 7.57988 54.4158 6.39171 52.3994C5.18956 50.3555 5.17559 47.9139 6.37773 45.8563L28.2959 8.62806C29.4841 6.58421 31.6088 5.37711 34.0131 5.37711C36.4034 5.37711 38.5421 6.59793 39.7303 8.64178L61.6345 45.87C62.8087 47.8727 62.7947 50.2869 61.5926 52.3308Z" fill="#EA6E55"/>
            <path d="M33.1324 18.7924C31.469 19.2588 30.4346 20.7402 30.4346 22.5371C30.5184 23.6208 30.5883 24.7182 30.6722 25.8018C30.9098 29.9307 31.1475 33.9772 31.3851 38.1061C31.469 39.5052 32.5733 40.5203 33.9991 40.5203C35.4249 40.5203 36.5431 39.4366 36.613 38.0238C36.613 37.1733 36.613 36.3914 36.6969 35.5272C36.8507 32.8798 37.0184 30.2324 37.1722 27.585C37.256 25.8704 37.4098 24.1558 37.4937 22.4411C37.4937 21.8239 37.4098 21.2752 37.1722 20.7265C36.4593 19.1902 34.7958 18.4083 33.1324 18.7924Z" fill="#EA6E55"/>
      </symbol>
      <symbol id="bug" viewBox="0 0 19 19" fill="none" 
            xmlns="http://www.w3.org/2000/svg">
            <path d="M8.23595 2.84422C8.41049 2.84422 8.55198 2.70273 8.55198 2.52819C8.55198 2.35365 8.41049 2.21216 8.23595 2.21216C8.06141 2.21216 7.91992 2.35365 7.91992 2.52819C7.91992 2.70273 8.06141 2.84422 8.23595 2.84422Z" fill="black"/>
            <path d="M10.7643 2.84422C10.9388 2.84422 11.0803 2.70273 11.0803 2.52819C11.0803 2.35365 10.9388 2.21216 10.7643 2.21216C10.5897 2.21216 10.4482 2.35365 10.4482 2.52819C10.4482 2.70273 10.5897 2.84422 10.7643 2.84422Z" fill="black"/>
            <path d="M17.9854 9.3924C18.2508 9.20036 18.5273 9.02413 18.8134 8.86463C18.9211 8.81627 18.9929 8.71188 18.9995 8.59398C19.0061 8.47608 18.9464 8.36433 18.8448 8.30425C18.7431 8.24417 18.6164 8.24578 18.5163 8.30842C18.0313 8.57906 17.5741 8.89661 17.1511 9.25651C17.0849 9.28188 17.03 9.33008 16.9962 9.3924C16.1998 10.1193 16.3642 10.3405 15.8206 10.6028V10.429C15.8202 9.27344 15.1207 8.23299 14.0508 7.79645C14.3302 7.54278 14.5096 7.1975 14.5565 6.82308C15.3609 6.2928 15.8378 5.3877 15.8206 4.42441C15.8214 4.01665 15.8638 3.61004 15.947 3.21086C16.2871 2.99001 16.6797 2.8635 17.0847 2.84427C17.2592 2.84427 17.4007 2.70277 17.4007 2.52824C17.4007 2.3537 17.2592 2.21221 17.0847 2.21221C16.7684 2.22228 16.4558 2.2831 16.1587 2.39234C16.2315 2.16356 16.3192 1.93976 16.421 1.72236C16.4986 1.56614 16.435 1.37661 16.2788 1.29888C16.1235 1.22085 15.9342 1.28298 15.8554 1.43793C15.4237 2.37483 15.1964 3.39288 15.1885 4.42441C15.2004 5.06209 14.9325 5.67298 14.4553 6.09621C14.3134 5.68877 14.0058 5.36041 13.6084 5.19237V3.47633C13.6067 2.83027 13.3227 2.21722 12.831 1.79821C12.727 1.55064 12.5707 1.32854 12.3727 1.14719C12.4486 0.948089 12.7045 0.632059 13.6084 0.632059C13.7829 0.632059 13.9244 0.490568 13.9244 0.31603C13.9244 0.141491 13.7829 0 13.6084 0C12.4991 0 12.0282 0.436121 11.8513 0.796394C11.0052 0.420266 10.0112 0.71018 9.5 1.48218C8.9888 0.71018 7.99481 0.420266 7.14874 0.796394C6.97176 0.436121 6.50088 0 5.39162 0C5.21708 0 5.07559 0.141491 5.07559 0.31603C5.07559 0.490568 5.21708 0.632059 5.39162 0.632059C6.29546 0.632059 6.55144 0.948089 6.62729 1.14719C6.42931 1.32854 6.27297 1.55064 6.16905 1.79821C5.67729 2.21722 5.39329 2.83027 5.39162 3.47633V5.18921C4.99742 5.36339 4.69148 5.69103 4.54466 6.09621C4.07101 5.67046 3.80382 5.06124 3.81147 4.42441C3.80363 3.39288 3.57632 2.37483 3.14465 1.43793C3.06577 1.28298 2.87654 1.22085 2.72117 1.29888C2.56502 1.37661 2.50137 1.56614 2.57895 1.72236C2.68084 1.93976 2.76846 2.16356 2.84126 2.39234C2.54424 2.2831 2.2316 2.22228 1.91529 2.21221C1.74075 2.21221 1.59926 2.3537 1.59926 2.52824C1.59926 2.70277 1.74075 2.84427 1.91529 2.84427C2.32031 2.8635 2.71294 2.99001 3.053 3.21086C3.13623 3.61004 3.17859 4.01665 3.17941 4.42441C3.16461 5.39264 3.64946 6.30025 4.46249 6.82624C4.50507 7.19696 4.67747 7.54066 4.94917 7.79645C3.87927 8.23299 3.1798 9.27344 3.17941 10.429V10.5901C2.63584 10.3373 2.79385 10.0971 1.99746 9.3766C1.96355 9.3175 1.91145 9.27094 1.84892 9.24386C1.42498 8.8852 0.96783 8.56774 0.483676 8.29578C0.383574 8.23313 0.256898 8.23153 0.155238 8.29161C0.0535785 8.35169 -0.00610425 8.46344 0.00049596 8.58134C0.00709617 8.69924 0.0788781 8.80363 0.186609 8.85199C0.472737 9.01149 0.749216 9.18772 1.01461 9.37976C0.693842 9.51431 0.394623 9.69534 0.126563 9.91701C0.00454899 10.0342 -0.00352947 10.2267 0.108236 10.3537C0.220002 10.4807 0.411965 10.4972 0.543722 10.3911C0.850635 10.1395 1.21209 9.96306 1.59926 9.87592C1.80521 10.0613 1.9849 10.274 2.13335 10.508C2.37791 10.8792 2.75007 11.148 3.17941 11.2633V13.0963C2.3779 13.6247 1.9013 14.5255 1.91529 15.4854C1.91447 15.8932 1.87211 16.2998 1.78888 16.699C1.44883 16.9198 1.05619 17.0464 0.651172 17.0656C0.476634 17.0656 0.335142 17.2071 0.335142 17.3816C0.335142 17.5562 0.476634 17.6977 0.651172 17.6977C0.967483 17.6876 1.28012 17.6268 1.57714 17.5175C1.50434 17.7463 1.41672 17.9701 1.31483 18.1875C1.23725 18.3437 1.3009 18.5333 1.45705 18.611C1.61242 18.689 1.80165 18.6269 1.88053 18.4719C2.3122 17.535 2.53951 16.517 2.54735 15.4854C2.5389 14.8955 2.76644 14.3267 3.17941 13.9053C3.17941 15.2464 3.71214 16.5325 4.66042 17.4808C5.60869 18.429 6.89482 18.9618 8.23588 18.9618H10.7641C13.5567 18.9618 15.8206 16.6979 15.8206 13.9053C16.2354 14.3255 16.4632 14.8951 16.4527 15.4854C16.4605 16.517 16.6878 17.535 17.1195 18.4719C17.173 18.5782 17.2817 18.6454 17.4007 18.6457C17.5108 18.6465 17.6134 18.5899 17.6715 18.4964C17.7295 18.4028 17.7347 18.2858 17.6852 18.1875C17.5833 17.9701 17.4957 17.7463 17.4229 17.5175C17.7199 17.6268 18.0325 17.6876 18.3488 17.6977C18.5234 17.6977 18.6649 17.5562 18.6649 17.3816C18.6649 17.2071 18.5234 17.0656 18.3488 17.0656C17.9438 17.0464 17.5512 16.9198 17.2111 16.699C17.1279 16.2998 17.0855 15.8932 17.0847 15.4854C17.0987 14.5255 16.6221 13.6247 15.8206 13.0963V11.2633C16.2484 11.1427 16.6172 10.8695 16.8572 10.4953C17.0056 10.2613 17.1853 10.0487 17.3913 9.86328C17.7829 9.95275 18.1479 10.1336 18.4563 10.3911C18.5401 10.4715 18.6613 10.4996 18.7719 10.464C18.8825 10.4284 18.9647 10.335 18.9859 10.2208C19.0071 10.1066 18.9639 9.98989 18.8734 9.91701C18.6046 9.69979 18.3054 9.52305 17.9854 9.3924ZM11.0801 1.26412C11.7783 1.26412 12.3443 1.83008 12.3443 2.52824C12.3443 3.22639 11.7783 3.79235 11.0801 3.79235C10.382 3.79235 9.81603 3.22639 9.81603 2.52824C9.81603 1.83008 10.382 1.26412 11.0801 1.26412ZM9.18397 2.52824C9.18397 3.22639 8.61801 3.79235 7.91985 3.79235C7.2217 3.79235 6.65573 3.22639 6.65573 2.52824C6.65573 1.83008 7.2217 1.26412 7.91985 1.26412C8.61801 1.26412 9.18397 1.83008 9.18397 2.52824ZM6.0932 3.02756C6.29044 3.74357 6.88753 4.27852 7.62083 4.3962C8.35413 4.51389 9.08862 4.19263 9.5 3.57429C9.91138 4.19263 10.6459 4.51389 11.3792 4.3962C12.1125 4.27852 12.7096 3.74357 12.9068 3.02756C12.9984 3.34359 12.9763 3.34359 12.9763 5.05647H6.02367C6.02367 3.34359 6.00155 3.33095 6.0932 3.02756ZM8.89954 18.3297L9.5 12.3252L10.1005 18.3297H8.89954ZM15.1885 13.9053C15.1886 15.0837 14.7185 16.2134 13.8826 17.0439C13.0467 17.8745 11.914 18.3373 10.7357 18.3297L9.81603 9.13325C9.81603 8.95872 9.67454 8.81722 9.5 8.81722C9.32546 8.81722 9.18397 8.95872 9.18397 9.13325L8.26432 18.3297C7.08598 18.3373 5.95329 17.8745 5.11739 17.0439C4.28149 16.2134 3.81144 15.0837 3.81147 13.9053V10.429C3.81147 9.20721 4.80191 8.21677 6.02367 8.21677C6.19821 8.21677 6.3397 8.07528 6.3397 7.90074C6.3397 7.7262 6.19821 7.58471 6.02367 7.58471C5.50006 7.58471 5.07559 7.16024 5.07559 6.63662C5.07559 6.11301 5.50006 5.68853 6.02367 5.68853H12.9763C13.4999 5.68853 13.9244 6.11301 13.9244 6.63662C13.9244 7.16024 13.4999 7.58471 12.9763 7.58471C12.8018 7.58471 12.6603 7.7262 12.6603 7.90074C12.6603 8.07528 12.8018 8.21677 12.9763 8.21677C14.1981 8.21677 15.1885 9.20721 15.1885 10.429V13.9053Z" fill="black"/>
            <path d="M11.7121 7.58472H7.28771C7.11317 7.58472 6.97168 7.72621 6.97168 7.90075C6.97168 8.07528 7.11317 8.21678 7.28771 8.21678H11.7121C11.8867 8.21678 12.0282 8.07528 12.0282 7.90075C12.0282 7.72621 11.8867 7.58472 11.7121 7.58472Z" fill="black"/>
      </symbol>
      <symbol id="rotateRight" viewBox="0 0 26 26" fill="none" 
            xmlns="http://www.w3.org/2000/svg">
            <path d="M13 26C20.1797 26 26 20.1797 26 13C26 5.8203 20.1797 0 13 0C5.8203 0 0 5.8203 0 13C0 20.1797 5.8203 26 13 26Z" fill="#89D342"/>
            <path fill-rule="evenodd" clip-rule="evenodd" d="M16.6036 8.09895L13.1359 6V7.4843C10.2698 7.68213 8 9.6459 8 12.7032C8 15.8893 10.4623 19 13.5 19C16.5377 19 19 16.4169 19 13.2302C19.003 11.8621 18.536 10.5365 17.681 9.4866L16.7335 10.2582C17.4253 11.0853 17.8049 12.1397 17.8031 13.2296C17.8031 15.7224 15.876 17.7435 13.5 17.7435C11.1239 17.7435 9.19703 15.7228 9.19703 13.2296C9.18732 12.1115 9.58642 11.0303 10.3156 10.1992C11.0447 9.36823 12.051 8.84782 13.1357 8.74069V10.1996L16.6036 8.09895Z" fill="white"/>
      </symbol>
      <symbol id="rotateLeft" viewBox="0 0 26 26" fill="none" 
            xmlns="http://www.w3.org/2000/svg">
            <path d="M13 26C20.1797 26 26 20.1797 26 13C26 5.8203 20.1797 0 13 0C5.8203 0 0 5.8203 0 13C0 20.1797 5.8203 26 13 26Z" fill="#89D342"/>
            <path fill-rule="evenodd" clip-rule="evenodd" d="M9.39637 8.09895L12.8641 6V7.4843C15.7302 7.68213 18 9.6459 18 12.7032C18 15.8893 15.5377 19 12.5 19C9.46231 19 7.00001 16.4169 7.00001 13.2302C6.997 11.8621 7.46402 10.5365 8.31903 9.4866L9.26645 10.2582C8.57466 11.0853 8.19514 12.1397 8.1969 13.2296C8.1969 15.7224 10.124 17.7435 12.5 17.7435C14.876 17.7435 16.803 15.7228 16.803 13.2296C16.8127 12.1115 16.4136 11.0303 15.6844 10.1992C14.9553 9.36823 13.949 8.84782 12.8643 8.74069V10.1996L9.39637 8.09895Z" fill="white"/>
      </symbol>
      <symbol id="doc" viewBox="0 0 50 56" fill="none" 
            xmlns="http://www.w3.org/2000/svg">
            <path d="M9 3.5C9 2.40343 9.90343 1.5 11 1.5H34.6716C34.8042 1.5 34.9314 1.55268 35.0251 1.64645L36.0792 0.592373L35.0251 1.64645L47.8536 14.4749C47.9473 14.5686 48 14.6958 48 14.8284V52.5C48 53.5966 47.0966 54.5 46 54.5H11C9.90343 54.5 9 53.5966 9 52.5V3.5Z" fill="#E2E5E7" stroke="white" stroke-width="3"/>
            <path d="M42.5 45.5C42.5 46.4625 41.7125 47.25 40.75 47.25H2.25C1.2875 47.25 0.5 46.4625 0.5 45.5V28C0.5 27.0375 1.2875 26.25 2.25 26.25H40.75C41.7125 26.25 42.5 27.0375 42.5 28V45.5Z" fill="#009EE2"/>
            <path d="M37 15H46L34 3V12C34 13.65 35.35 15 37 15Z" fill="#B0B7BD"/>
            <path d="M15.2319 37.5435C15.2319 39.3062 14.729 40.6562 13.7231 41.5938C12.7222 42.5312 11.2744 43 9.37988 43H6.34766V32.292H9.70947C11.4575 32.292 12.8149 32.7534 13.7817 33.6763C14.7485 34.5991 15.2319 35.8882 15.2319 37.5435ZM12.8735 37.6021C12.8735 35.3022 11.8579 34.1523 9.82666 34.1523H8.61816V41.125H9.59229C11.7798 41.125 12.8735 39.9507 12.8735 37.6021ZM27.1704 37.6313C27.1704 39.4038 26.731 40.7661 25.8521 41.7183C24.9731 42.6704 23.7134 43.1465 22.0728 43.1465C20.4321 43.1465 19.1724 42.6704 18.2935 41.7183C17.4146 40.7661 16.9751 39.3989 16.9751 37.6167C16.9751 35.8345 17.4146 34.4746 18.2935 33.5371C19.1772 32.5947 20.4419 32.1235 22.0874 32.1235C23.7329 32.1235 24.9902 32.5972 25.8594 33.5444C26.7334 34.4917 27.1704 35.854 27.1704 37.6313ZM19.3555 37.6313C19.3555 38.8276 19.5825 39.7285 20.0366 40.334C20.4907 40.9395 21.1694 41.2422 22.0728 41.2422C23.8843 41.2422 24.79 40.0386 24.79 37.6313C24.79 35.2192 23.8892 34.0132 22.0874 34.0132C21.1841 34.0132 20.5029 34.3184 20.0439 34.9287C19.585 35.5342 19.3555 36.4351 19.3555 37.6313ZM33.938 34.0278C33.0835 34.0278 32.4219 34.3501 31.9531 34.9946C31.4844 35.6343 31.25 36.5278 31.25 37.6753C31.25 40.063 32.146 41.2568 33.938 41.2568C34.6899 41.2568 35.6006 41.0688 36.6699 40.6929V42.5972C35.791 42.9634 34.8096 43.1465 33.7256 43.1465C32.168 43.1465 30.9766 42.6753 30.1514 41.7329C29.3262 40.7856 28.9136 39.4282 28.9136 37.6606C28.9136 36.5474 29.1162 35.5732 29.5215 34.7383C29.9268 33.8984 30.5078 33.2563 31.2646 32.812C32.0264 32.3628 32.9175 32.1382 33.938 32.1382C34.978 32.1382 36.0229 32.3896 37.0728 32.8926L36.3403 34.7383C35.9399 34.5479 35.5371 34.3818 35.1318 34.2402C34.7266 34.0986 34.3286 34.0278 33.938 34.0278Z" fill="white"/>
      </symbol>
      <symbol id="docx" viewBox="0 0 53 56" fill="none" 
            xmlns="http://www.w3.org/2000/svg">
            <path d="M12 3.5C12 2.40343 12.9034 1.5 14 1.5H37.6716C37.8042 1.5 37.9314 1.55268 38.0251 1.64645L39.0792 0.592373L38.0251 1.64645L50.8536 14.4749C50.9473 14.5686 51 14.6958 51 14.8284V52.5C51 53.5966 50.0966 54.5 49 54.5H14C12.9034 54.5 12 53.5966 12 52.5V3.5Z" fill="#E2E5E7" stroke="white" stroke-width="3"/>
            <path d="M48 45.25C48 46.2125 47.1 47 46 47H2C0.9 47 0 46.2125 0 45.25V27.75C0 26.7875 0.9 26 2 26H46C47.1 26 48 26.7875 48 27.75V45.25Z" fill="#009EE2"/>
            <path d="M40 15H49L37 3V12C37 13.65 38.35 15 40 15Z" fill="#B0B7BD"/>
            <path d="M12.2319 36.5435C12.2319 38.3062 11.729 39.6562 10.7231 40.5938C9.72217 41.5312 8.27441 42 6.37988 42H3.34766V31.292H6.70947C8.45752 31.292 9.81494 31.7534 10.7817 32.6763C11.7485 33.5991 12.2319 34.8882 12.2319 36.5435ZM9.87354 36.6021C9.87354 34.3022 8.85791 33.1523 6.82666 33.1523H5.61816V40.125H6.59229C8.77979 40.125 9.87354 38.9507 9.87354 36.6021ZM24.1704 36.6313C24.1704 38.4038 23.731 39.7661 22.8521 40.7183C21.9731 41.6704 20.7134 42.1465 19.0728 42.1465C17.4321 42.1465 16.1724 41.6704 15.2935 40.7183C14.4146 39.7661 13.9751 38.3989 13.9751 36.6167C13.9751 34.8345 14.4146 33.4746 15.2935 32.5371C16.1772 31.5947 17.4419 31.1235 19.0874 31.1235C20.7329 31.1235 21.9902 31.5972 22.8594 32.5444C23.7334 33.4917 24.1704 34.854 24.1704 36.6313ZM16.3555 36.6313C16.3555 37.8276 16.5825 38.7285 17.0366 39.334C17.4907 39.9395 18.1694 40.2422 19.0728 40.2422C20.8843 40.2422 21.79 39.0386 21.79 36.6313C21.79 34.2192 20.8892 33.0132 19.0874 33.0132C18.1841 33.0132 17.5029 33.3184 17.0439 33.9287C16.585 34.5342 16.3555 35.4351 16.3555 36.6313ZM30.938 33.0278C30.0835 33.0278 29.4219 33.3501 28.9531 33.9946C28.4844 34.6343 28.25 35.5278 28.25 36.6753C28.25 39.063 29.146 40.2568 30.938 40.2568C31.6899 40.2568 32.6006 40.0688 33.6699 39.6929V41.5972C32.791 41.9634 31.8096 42.1465 30.7256 42.1465C29.168 42.1465 27.9766 41.6753 27.1514 40.7329C26.3262 39.7856 25.9136 38.4282 25.9136 36.6606C25.9136 35.5474 26.1162 34.5732 26.5215 33.7383C26.9268 32.8984 27.5078 32.2563 28.2646 31.812C29.0264 31.3628 29.9175 31.1382 30.938 31.1382C31.978 31.1382 33.0229 31.3896 34.0728 31.8926L33.3403 33.7383C32.9399 33.5479 32.5371 33.3818 32.1318 33.2402C31.7266 33.0986 31.3286 33.0278 30.938 33.0278ZM44.6123 42H42.0195L39.5293 37.9497L37.0391 42H34.6074L38.1597 36.4775L34.8345 31.292H37.3394L39.6465 35.1445L41.9097 31.292H44.356L40.9941 36.6021L44.6123 42Z" fill="white"/>
      </symbol>
      <symbol id="rtf" viewBox="0 0 50 56" fill="none" 
            xmlns="http://www.w3.org/2000/svg">
            <path d="M9 3.5C9 2.40343 9.90343 1.5 11 1.5H34.6716C34.8042 1.5 34.9314 1.55268 35.0251 1.64645L36.0792 0.592373L35.0251 1.64645L47.8536 14.4749C47.9473 14.5686 48 14.6958 48 14.8284V52.5C48 53.5966 47.0966 54.5 46 54.5H11C9.90343 54.5 9 53.5966 9 52.5V3.5Z" fill="#E2E5E7" stroke="white" stroke-width="3"/>
            <path d="M42.5 45.5C42.5 46.4625 41.7125 47.25 40.75 47.25H2.25C1.2875 47.25 0.5 46.4625 0.5 45.5V28C0.5 27.0375 1.2875 26.25 2.25 26.25H40.75C41.7125 26.25 42.5 27.0375 42.5 28V45.5Z" fill="#009EE2"/>
            <path d="M37 15H46L34 3V12C34 13.65 35.35 15 37 15Z" fill="#B0B7BD"/>
            <path d="M11.6182 37.0454H12.3506C13.0684 37.0454 13.5981 36.9258 13.9399 36.6865C14.2817 36.4473 14.4526 36.0713 14.4526 35.5586C14.4526 35.0508 14.2769 34.6895 13.9253 34.4746C13.5786 34.2598 13.0391 34.1523 12.3066 34.1523H11.6182V37.0454ZM11.6182 38.8911V43H9.34766V32.292H12.4678C13.9229 32.292 14.9995 32.5581 15.6978 33.0903C16.396 33.6177 16.7451 34.4209 16.7451 35.5C16.7451 36.1299 16.5718 36.6914 16.2251 37.1846C15.8784 37.6729 15.3877 38.0562 14.7529 38.3345C16.3643 40.7417 17.4141 42.2969 17.9023 43H15.3828L12.8267 38.8911H11.6182ZM23.3809 43H21.1104V34.1816H18.2026V32.292H26.2886V34.1816H23.3809V43ZM30.1704 43H27.9365V32.292H34.0742V34.1523H30.1704V36.9136H33.8032V38.7666H30.1704V43Z" fill="white"/>
      </symbol>
      <symbol id="odt" viewBox="0 0 50 56" fill="none" 
            xmlns="http://www.w3.org/2000/svg">
            <path d="M9 3.5C9 2.40343 9.90343 1.5 11 1.5H34.6716C34.8042 1.5 34.9314 1.55268 35.0251 1.64645L36.0792 0.592373L35.0251 1.64645L47.8536 14.4749C47.9473 14.5686 48 14.6958 48 14.8284V52.5C48 53.5966 47.0966 54.5 46 54.5H11C9.90343 54.5 9 53.5966 9 52.5V3.5Z" fill="#E2E5E7" stroke="white" stroke-width="3"/>
            <path d="M42.5 45.5C42.5 46.4625 41.7125 47.25 40.75 47.25H2.25C1.2875 47.25 0.5 46.4625 0.5 45.5V28C0.5 27.0375 1.2875 26.25 2.25 26.25H40.75C41.7125 26.25 42.5 27.0375 42.5 28V45.5Z" fill="#009EE2"/>
            <path d="M37 15H46L34 3V12C34 13.65 35.35 15 37 15Z" fill="#B0B7BD"/>
            <path d="M16.0669 37.6313C16.0669 39.4038 15.6274 40.7661 14.7485 41.7183C13.8696 42.6704 12.6099 43.1465 10.9692 43.1465C9.32861 43.1465 8.06885 42.6704 7.18994 41.7183C6.31104 40.7661 5.87158 39.3989 5.87158 37.6167C5.87158 35.8345 6.31104 34.4746 7.18994 33.5371C8.07373 32.5947 9.33838 32.1235 10.9839 32.1235C12.6294 32.1235 13.8867 32.5972 14.7559 33.5444C15.6299 34.4917 16.0669 35.854 16.0669 37.6313ZM8.25195 37.6313C8.25195 38.8276 8.479 39.7285 8.93311 40.334C9.38721 40.9395 10.0659 41.2422 10.9692 41.2422C12.7808 41.2422 13.6865 40.0386 13.6865 37.6313C13.6865 35.2192 12.7856 34.0132 10.9839 34.0132C10.0806 34.0132 9.39941 34.3184 8.94043 34.9287C8.48145 35.5342 8.25195 36.4351 8.25195 37.6313ZM27.1704 37.5435C27.1704 39.3062 26.6675 40.6562 25.6616 41.5938C24.6606 42.5312 23.2129 43 21.3184 43H18.2861V32.292H21.6479C23.396 32.292 24.7534 32.7534 25.7202 33.6763C26.687 34.5991 27.1704 35.8882 27.1704 37.5435ZM24.812 37.6021C24.812 35.3022 23.7964 34.1523 21.7651 34.1523H20.5566V41.125H21.5308C23.7183 41.125 24.812 39.9507 24.812 37.6021ZM33.5205 43H31.25V34.1816H28.3423V32.292H36.4282V34.1816H33.5205V43Z" fill="white"/>
      </symbol>
      <symbol id="ods" viewBox="0 0 50 56" fill="none" 
            xmlns="http://www.w3.org/2000/svg">
            <path d="M9 3.5C9 2.40343 9.90343 1.5 11 1.5H34.6716C34.8042 1.5 34.9314 1.55268 35.0251 1.64645L36.0792 0.592373L35.0251 1.64645L47.8536 14.4749C47.9473 14.5686 48 14.6958 48 14.8284V52.5C48 53.5966 47.0966 54.5 46 54.5H11C9.90343 54.5 9 53.5966 9 52.5V3.5Z" fill="#E2E5E7" stroke="white" stroke-width="3"/>
            <path d="M42.5 45.5C42.5 46.4625 41.7125 47.25 40.75 47.25H2.25C1.2875 47.25 0.5 46.4625 0.5 45.5V28C0.5 27.0375 1.2875 26.25 2.25 26.25H40.75C41.7125 26.25 42.5 27.0375 42.5 28V45.5Z" fill="#89D342"/>
            <path d="M37 15H46L34 3V12C34 13.65 35.35 15 37 15Z" fill="#B0B7BD"/>
            <path d="M16.0669 36.6313C16.0669 38.4038 15.6274 39.7661 14.7485 40.7183C13.8696 41.6704 12.6099 42.1465 10.9692 42.1465C9.32861 42.1465 8.06885 41.6704 7.18994 40.7183C6.31104 39.7661 5.87158 38.3989 5.87158 36.6167C5.87158 34.8345 6.31104 33.4746 7.18994 32.5371C8.07373 31.5947 9.33838 31.1235 10.9839 31.1235C12.6294 31.1235 13.8867 31.5972 14.7559 32.5444C15.6299 33.4917 16.0669 34.854 16.0669 36.6313ZM8.25195 36.6313C8.25195 37.8276 8.479 38.7285 8.93311 39.334C9.38721 39.9395 10.0659 40.2422 10.9692 40.2422C12.7808 40.2422 13.6865 39.0386 13.6865 36.6313C13.6865 34.2192 12.7856 33.0132 10.9839 33.0132C10.0806 33.0132 9.39941 33.3184 8.94043 33.9287C8.48145 34.5342 8.25195 35.4351 8.25195 36.6313ZM27.1704 36.5435C27.1704 38.3062 26.6675 39.6562 25.6616 40.5938C24.6606 41.5312 23.2129 42 21.3184 42H18.2861V31.292H21.6479C23.396 31.292 24.7534 31.7534 25.7202 32.6763C26.687 33.5991 27.1704 34.8882 27.1704 36.5435ZM24.812 36.6021C24.812 34.3022 23.7964 33.1523 21.7651 33.1523H20.5566V40.125H21.5308C23.7183 40.125 24.812 38.9507 24.812 36.6021ZM35.7104 39.0264C35.7104 39.9932 35.3613 40.7549 34.6631 41.3115C33.9697 41.8682 33.0029 42.1465 31.7627 42.1465C30.6201 42.1465 29.6094 41.9316 28.7305 41.502V39.3926C29.4531 39.7148 30.0635 39.9419 30.5615 40.0737C31.0645 40.2056 31.5234 40.2715 31.9385 40.2715C32.4365 40.2715 32.8174 40.1763 33.0811 39.9858C33.3496 39.7954 33.4839 39.5122 33.4839 39.1362C33.4839 38.9263 33.4253 38.7407 33.3081 38.5796C33.1909 38.4136 33.0176 38.2549 32.7881 38.1035C32.5635 37.9521 32.1021 37.7104 31.4038 37.3784C30.7495 37.0708 30.2588 36.7754 29.9316 36.4922C29.6045 36.209 29.3433 35.8794 29.1479 35.5034C28.9526 35.1274 28.855 34.688 28.855 34.1851C28.855 33.2378 29.1748 32.4932 29.8145 31.9512C30.459 31.4092 31.3477 31.1382 32.4805 31.1382C33.0371 31.1382 33.5669 31.2041 34.0698 31.3359C34.5776 31.4678 35.1074 31.6533 35.6592 31.8926L34.9268 33.6577C34.3555 33.4233 33.8818 33.2598 33.5059 33.167C33.1348 33.0742 32.7686 33.0278 32.4072 33.0278C31.9775 33.0278 31.6479 33.1279 31.4185 33.3281C31.189 33.5283 31.0742 33.7896 31.0742 34.1118C31.0742 34.312 31.1206 34.4878 31.2134 34.6392C31.3062 34.7856 31.4526 34.9297 31.6528 35.0713C31.8579 35.208 32.3389 35.457 33.0957 35.8184C34.0967 36.2969 34.7827 36.7778 35.1538 37.2612C35.5249 37.7397 35.7104 38.3281 35.7104 39.0264Z" fill="white"/>
      </symbol>
      <symbol id="xlsx" viewBox="0 0 51 56" fill="none" 
            xmlns="http://www.w3.org/2000/svg">
            <path d="M10 3.5C10 2.40343 10.9034 1.5 12 1.5H35.6716C35.8042 1.5 35.9314 1.55268 36.0251 1.64645L37.0792 0.592373L36.0251 1.64645L48.8536 14.4749C48.9473 14.5686 49 14.6958 49 14.8284V52.5C49 53.5966 48.0966 54.5 47 54.5H12C10.9034 54.5 10 53.5966 10 52.5V3.5Z" fill="#E2E5E7" stroke="white" stroke-width="3"/>
            <path d="M43 45.25C43 46.2125 42.1938 47 41.2083 47H1.79167C0.80625 47 0 46.2125 0 45.25V27.75C0 26.7875 0.80625 26 1.79167 26H41.2083C42.1938 26 43 26.7875 43 27.75V45.25Z" fill="#89D342"/>
            <path d="M38 15H47L35 3V12C35 13.65 36.35 15 38 15Z" fill="#B0B7BD"/>
            <path d="M13.0049 42H10.4121L7.92188 37.9497L5.43164 42H3L6.55225 36.4775L3.22705 31.292H5.73193L8.03906 35.1445L10.3022 31.292H12.7485L9.38672 36.6021L13.0049 42ZM14.3525 42V31.292H16.623V40.125H20.9663V42H14.3525ZM29.1548 39.0264C29.1548 39.9932 28.8057 40.7549 28.1074 41.3115C27.4141 41.8682 26.4473 42.1465 25.207 42.1465C24.0645 42.1465 23.0537 41.9316 22.1748 41.502V39.3926C22.8975 39.7148 23.5078 39.9419 24.0059 40.0737C24.5088 40.2056 24.9678 40.2715 25.3828 40.2715C25.8809 40.2715 26.2617 40.1763 26.5254 39.9858C26.7939 39.7954 26.9282 39.5122 26.9282 39.1362C26.9282 38.9263 26.8696 38.7407 26.7524 38.5796C26.6353 38.4136 26.4619 38.2549 26.2324 38.1035C26.0078 37.9521 25.5464 37.7104 24.8481 37.3784C24.1938 37.0708 23.7031 36.7754 23.376 36.4922C23.0488 36.209 22.7876 35.8794 22.5923 35.5034C22.397 35.1274 22.2993 34.688 22.2993 34.1851C22.2993 33.2378 22.6191 32.4932 23.2588 31.9512C23.9033 31.4092 24.792 31.1382 25.9248 31.1382C26.4814 31.1382 27.0112 31.2041 27.5142 31.3359C28.022 31.4678 28.5518 31.6533 29.1035 31.8926L28.3711 33.6577C27.7998 33.4233 27.3262 33.2598 26.9502 33.167C26.5791 33.0742 26.2129 33.0278 25.8516 33.0278C25.4219 33.0278 25.0923 33.1279 24.8628 33.3281C24.6333 33.5283 24.5186 33.7896 24.5186 34.1118C24.5186 34.312 24.5649 34.4878 24.6577 34.6392C24.7505 34.7856 24.897 34.9297 25.0972 35.0713C25.3022 35.208 25.7832 35.457 26.54 35.8184C27.541 36.2969 28.2271 36.7778 28.5981 37.2612C28.9692 37.7397 29.1548 38.3281 29.1548 39.0264ZM39.7529 42H37.1602L34.6699 37.9497L32.1797 42H29.748L33.3003 36.4775L29.9751 31.292H32.48L34.7871 35.1445L37.0503 31.292H39.4966L36.1348 36.6021L39.7529 42Z" fill="white"/>
      </symbol>
      <symbol id="xls" viewBox="0 0 50 56" fill="none" 
            xmlns="http://www.w3.org/2000/svg">
            <path d="M9 3.5C9 2.40343 9.90343 1.5 11 1.5H34.6716C34.8042 1.5 34.9314 1.55268 35.0251 1.64645L36.0792 0.592373L35.0251 1.64645L47.8536 14.4749C47.9473 14.5686 48 14.6958 48 14.8284V52.5C48 53.5966 47.0966 54.5 46 54.5H11C9.90343 54.5 9 53.5966 9 52.5V3.5Z" fill="#E2E5E7" stroke="white" stroke-width="3"/>
            <path d="M42.5 45.5C42.5 46.4625 41.7125 47.25 40.75 47.25H2.25C1.2875 47.25 0.5 46.4625 0.5 45.5V28C0.5 27.0375 1.2875 26.25 2.25 26.25H40.75C41.7125 26.25 42.5 27.0375 42.5 28V45.5Z" fill="#89D342"/>
            <path d="M37 15H46L34 3V12C34 13.65 35.35 15 37 15Z" fill="#B0B7BD"/>
            <path d="M17.0049 42H14.4121L11.9219 37.9497L9.43164 42H7L10.5522 36.4775L7.22705 31.292H9.73193L12.0391 35.1445L14.3022 31.292H16.7485L13.3867 36.6021L17.0049 42ZM18.3525 42V31.292H20.623V40.125H24.9663V42H18.3525ZM33.1548 39.0264C33.1548 39.9932 32.8057 40.7549 32.1074 41.3115C31.4141 41.8682 30.4473 42.1465 29.207 42.1465C28.0645 42.1465 27.0537 41.9316 26.1748 41.502V39.3926C26.8975 39.7148 27.5078 39.9419 28.0059 40.0737C28.5088 40.2056 28.9678 40.2715 29.3828 40.2715C29.8809 40.2715 30.2617 40.1763 30.5254 39.9858C30.7939 39.7954 30.9282 39.5122 30.9282 39.1362C30.9282 38.9263 30.8696 38.7407 30.7524 38.5796C30.6353 38.4136 30.4619 38.2549 30.2324 38.1035C30.0078 37.9521 29.5464 37.7104 28.8481 37.3784C28.1938 37.0708 27.7031 36.7754 27.376 36.4922C27.0488 36.209 26.7876 35.8794 26.5923 35.5034C26.397 35.1274 26.2993 34.688 26.2993 34.1851C26.2993 33.2378 26.6191 32.4932 27.2588 31.9512C27.9033 31.4092 28.792 31.1382 29.9248 31.1382C30.4814 31.1382 31.0112 31.2041 31.5142 31.3359C32.022 31.4678 32.5518 31.6533 33.1035 31.8926L32.3711 33.6577C31.7998 33.4233 31.3262 33.2598 30.9502 33.167C30.5791 33.0742 30.2129 33.0278 29.8516 33.0278C29.4219 33.0278 29.0923 33.1279 28.8628 33.3281C28.6333 33.5283 28.5186 33.7896 28.5186 34.1118C28.5186 34.312 28.5649 34.4878 28.6577 34.6392C28.7505 34.7856 28.897 34.9297 29.0972 35.0713C29.3022 35.208 29.7832 35.457 30.54 35.8184C31.541 36.2969 32.2271 36.7778 32.5981 37.2612C32.9692 37.7397 33.1548 38.3281 33.1548 39.0264Z" fill="white"/>
      </symbol>
      <symbol id="pptx" viewBox="0 0 50 56" fill="none" 
            xmlns="http://www.w3.org/2000/svg">
            <path d="M9 3.5C9 2.40343 9.90343 1.5 11 1.5H34.6716C34.8042 1.5 34.9314 1.55268 35.0251 1.64645L36.0792 0.592373L35.0251 1.64645L47.8536 14.4749C47.9473 14.5686 48 14.6958 48 14.8284V52.5C48 53.5966 47.0966 54.5 46 54.5H11C9.90343 54.5 9 53.5966 9 52.5V3.5Z" fill="#E2E5E7" stroke="white" stroke-width="3"/>
            <path d="M42.5 45.5C42.5 46.4625 41.7125 47.25 40.75 47.25H2.25C1.2875 47.25 0.5 46.4625 0.5 45.5V28C0.5 27.0375 1.2875 26.25 2.25 26.25H40.75C41.7125 26.25 42.5 27.0375 42.5 28V45.5Z" fill="#EA6E55"/>
            <path d="M37 15H46L34 3V12C34 13.65 35.35 15 37 15Z" fill="#B0B7BD"/>
            <path d="M6.61816 36.3311H7.36523C8.06348 36.3311 8.58594 36.1943 8.93262 35.9209C9.2793 35.6426 9.45264 35.2397 9.45264 34.7124C9.45264 34.1802 9.30615 33.7871 9.01318 33.5332C8.7251 33.2793 8.271 33.1523 7.65088 33.1523H6.61816V36.3311ZM11.7451 34.6318C11.7451 35.7842 11.3838 36.6655 10.6611 37.2759C9.94336 37.8862 8.92041 38.1914 7.59229 38.1914H6.61816V42H4.34766V31.292H7.76807C9.06689 31.292 10.0532 31.5728 10.7271 32.1343C11.4058 32.6909 11.7451 33.5234 11.7451 34.6318ZM16.0371 36.3311H16.7842C17.4824 36.3311 18.0049 36.1943 18.3516 35.9209C18.6982 35.6426 18.8716 35.2397 18.8716 34.7124C18.8716 34.1802 18.7251 33.7871 18.4321 33.5332C18.144 33.2793 17.6899 33.1523 17.0698 33.1523H16.0371V36.3311ZM21.1641 34.6318C21.1641 35.7842 20.8027 36.6655 20.0801 37.2759C19.3623 37.8862 18.3394 38.1914 17.0112 38.1914H16.0371V42H13.7666V31.292H17.187C18.4858 31.292 19.4722 31.5728 20.146 32.1343C20.8247 32.6909 21.1641 33.5234 21.1641 34.6318ZM27.3164 42H25.0459V33.1816H22.1382V31.292H30.2241V33.1816H27.3164V42ZM40.5293 42H37.9365L35.4463 37.9497L32.9561 42H30.5244L34.0767 36.4775L30.7515 31.292H33.2563L35.5635 35.1445L37.8267 31.292H40.2729L36.9111 36.6021L40.5293 42Z" fill="white"/>
      </symbol>
      <symbol id="ppt" viewBox="0 0 50 56" fill="none" 
            xmlns="http://www.w3.org/2000/svg">
            <path d="M9 3.5C9 2.40343 9.90343 1.5 11 1.5H34.6716C34.8042 1.5 34.9314 1.55268 35.0251 1.64645L36.0792 0.592373L35.0251 1.64645L47.8536 14.4749C47.9473 14.5686 48 14.6958 48 14.8284V52.5C48 53.5966 47.0966 54.5 46 54.5H11C9.90343 54.5 9 53.5966 9 52.5V3.5Z" fill="#E2E5E7" stroke="white" stroke-width="3"/>
            <path d="M42.5 45.5C42.5 46.4625 41.7125 47.25 40.75 47.25H2.25C1.2875 47.25 0.5 46.4625 0.5 45.5V28C0.5 27.0375 1.2875 26.25 2.25 26.25H40.75C41.7125 26.25 42.5 27.0375 42.5 28V45.5Z" fill="#EA6E55"/>
            <path d="M37 15H46L34 3V12C34 13.65 35.35 15 37 15Z" fill="#B0B7BD"/>
            <path d="M11.6182 36.3311H12.3652C13.0635 36.3311 13.5859 36.1943 13.9326 35.9209C14.2793 35.6426 14.4526 35.2397 14.4526 34.7124C14.4526 34.1802 14.3062 33.7871 14.0132 33.5332C13.7251 33.2793 13.271 33.1523 12.6509 33.1523H11.6182V36.3311ZM16.7451 34.6318C16.7451 35.7842 16.3838 36.6655 15.6611 37.2759C14.9434 37.8862 13.9204 38.1914 12.5923 38.1914H11.6182V42H9.34766V31.292H12.7681C14.0669 31.292 15.0532 31.5728 15.7271 32.1343C16.4058 32.6909 16.7451 33.5234 16.7451 34.6318ZM21.0371 36.3311H21.7842C22.4824 36.3311 23.0049 36.1943 23.3516 35.9209C23.6982 35.6426 23.8716 35.2397 23.8716 34.7124C23.8716 34.1802 23.7251 33.7871 23.4321 33.5332C23.144 33.2793 22.6899 33.1523 22.0698 33.1523H21.0371V36.3311ZM26.1641 34.6318C26.1641 35.7842 25.8027 36.6655 25.0801 37.2759C24.3623 37.8862 23.3394 38.1914 22.0112 38.1914H21.0371V42H18.7666V31.292H22.187C23.4858 31.292 24.4722 31.5728 25.146 32.1343C25.8247 32.6909 26.1641 33.5234 26.1641 34.6318ZM32.3164 42H30.0459V33.1816H27.1382V31.292H35.2241V33.1816H32.3164V42Z" fill="white"/>
      </symbol>
      <symbol id="pdf" viewBox="0 0 50 56" fill="none" 
            xmlns="http://www.w3.org/2000/svg">
            <path d="M9 3.5C9 2.40343 9.90343 1.5 11 1.5H34.6716C34.8042 1.5 34.9314 1.55268 35.0251 1.64645L36.0792 0.592373L35.0251 1.64645L47.8536 14.4749C47.9473 14.5686 48 14.6958 48 14.8284V52.5C48 53.5966 47.0966 54.5 46 54.5H11C9.90343 54.5 9 53.5966 9 52.5V3.5Z" fill="#E2E5E7" stroke="white" stroke-width="3"/>
            <path d="M42.5 45.5C42.5 46.4625 41.7125 47.25 40.75 47.25H2.25C1.2875 47.25 0.5 46.4625 0.5 45.5V28C0.5 27.0375 1.2875 26.25 2.25 26.25H40.75C41.7125 26.25 42.5 27.0375 42.5 28V45.5Z" fill="#EA6E55"/>
            <path d="M37 15H46L34 3V12C34 13.65 35.35 15 37 15Z" fill="#B0B7BD"/>
            <path d="M10.6182 36.3311H11.3652C12.0635 36.3311 12.5859 36.1943 12.9326 35.9209C13.2793 35.6426 13.4526 35.2397 13.4526 34.7124C13.4526 34.1802 13.3062 33.7871 13.0132 33.5332C12.7251 33.2793 12.271 33.1523 11.6509 33.1523H10.6182V36.3311ZM15.7451 34.6318C15.7451 35.7842 15.3838 36.6655 14.6611 37.2759C13.9434 37.8862 12.9204 38.1914 11.5923 38.1914H10.6182V42H8.34766V31.292H11.7681C13.0669 31.292 14.0532 31.5728 14.7271 32.1343C15.4058 32.6909 15.7451 33.5234 15.7451 34.6318ZM26.6509 36.5435C26.6509 38.3062 26.1479 39.6562 25.1421 40.5938C24.1411 41.5312 22.6934 42 20.7988 42H17.7666V31.292H21.1284C22.8765 31.292 24.2339 31.7534 25.2007 32.6763C26.1675 33.5991 26.6509 34.8882 26.6509 36.5435ZM24.2925 36.6021C24.2925 34.3022 23.2769 33.1523 21.2456 33.1523H20.0371V40.125H21.0112C23.1987 40.125 24.2925 38.9507 24.2925 36.6021ZM31.104 42H28.8701V31.292H35.0078V33.1523H31.104V35.9136H34.7368V37.7666H31.104V42Z" fill="white"/>
      </symbol>
      <symbol id="tiff" viewBox="0 0 46 56" fill="none" 
            xmlns="http://www.w3.org/2000/svg">
            <path d="M5 3.5C5 2.40343 5.90343 1.5 7 1.5H30.6716C30.8042 1.5 30.9314 1.55268 31.0251 1.64645L32.0792 0.592373L31.0251 1.64645L43.8536 14.4749C43.9473 14.5686 44 14.6958 44 14.8284V52.5C44 53.5966 43.0966 54.5 42 54.5H7C5.90343 54.5 5 53.5966 5 52.5V3.5Z" fill="#E2E5E7" stroke="white" stroke-width="3"/>
            <path d="M41 45.25C41 46.2125 40.2313 47 39.2917 47H1.70833C0.76875 47 0 46.2125 0 45.25V27.75C0 26.7875 0.76875 26 1.70833 26H39.2917C40.2313 26 41 26.7875 41 27.75V45.25Z" fill="#545454"/>
            <path d="M33 15H42L30 3V12C30 13.65 31.35 15 33 15Z" fill="#B0B7BD"/>
            <path d="M10.4785 42H8.20801V33.1816H5.30029V31.292H13.3862V33.1816H10.4785V42ZM15.0342 42V31.292H17.3047V42H15.0342ZM22.2339 42H20V31.292H26.1377V33.1523H22.2339V35.9136H25.8667V37.7666H22.2339V42ZM30.4663 42H28.2324V31.292H34.3701V33.1523H30.4663V35.9136H34.0991V37.7666H30.4663V42Z" fill="white"/>
      </symbol>
      <symbol id="bmp" viewBox="0 0 47 56" fill="none" 
            xmlns="http://www.w3.org/2000/svg">
            <path d="M6 3.5C6 2.40343 6.90343 1.5 8 1.5H31.6716C31.8042 1.5 31.9314 1.55268 32.0251 1.64645L33.0792 0.592373L32.0251 1.64645L44.8536 14.4749C44.9473 14.5686 45 14.6958 45 14.8284V52.5C45 53.5966 44.0966 54.5 43 54.5H8C6.90343 54.5 6 53.5966 6 52.5V3.5Z" fill="#E2E5E7" stroke="white" stroke-width="3"/>
            <path d="M40 45.25C40 46.2125 39.25 47 38.3333 47H1.66667C0.75 47 0 46.2125 0 45.25V27.75C0 26.7875 0.75 26 1.66667 26H38.3333C39.25 26 40 26.7875 40 27.75V45.25Z" fill="#EA6E55"/>
            <path d="M34 15H43L31 3V12C31 13.65 32.35 15 34 15Z" fill="#B0B7BD"/>
            <path d="M4.34766 31.292H7.68018C9.19873 31.292 10.2998 31.5093 10.9834 31.9438C11.6719 32.3735 12.0161 33.0596 12.0161 34.002C12.0161 34.6416 11.8647 35.1665 11.562 35.5767C11.2642 35.9868 10.8662 36.2334 10.3682 36.3164V36.3896C11.0469 36.541 11.5352 36.8242 11.833 37.2393C12.1357 37.6543 12.2871 38.2061 12.2871 38.8945C12.2871 39.8711 11.9331 40.6328 11.2251 41.1797C10.522 41.7266 9.56494 42 8.354 42H4.34766V31.292ZM6.61816 35.5327H7.93652C8.55176 35.5327 8.99609 35.4375 9.26953 35.2471C9.54785 35.0566 9.68701 34.7417 9.68701 34.3022C9.68701 33.8921 9.53564 33.5991 9.23291 33.4233C8.93506 33.2427 8.46143 33.1523 7.81201 33.1523H6.61816V35.5327ZM6.61816 37.3345V40.125H8.09766C8.72266 40.125 9.18408 40.0054 9.48193 39.7661C9.77979 39.5269 9.92871 39.1606 9.92871 38.6675C9.92871 37.7788 9.29395 37.3345 8.02441 37.3345H6.61816ZM18.9595 42L16.3813 33.5991H16.3154C16.4082 35.3081 16.4546 36.4482 16.4546 37.0195V42H14.4258V31.292H17.5166L20.0508 39.4805H20.0947L22.7827 31.292H25.8735V42H23.7568V36.9316C23.7568 36.6924 23.7593 36.4165 23.7642 36.104C23.7739 35.7915 23.8081 34.9614 23.8667 33.6138H23.8008L21.0396 42H18.9595ZM30.8467 36.3311H31.5938C32.292 36.3311 32.8145 36.1943 33.1611 35.9209C33.5078 35.6426 33.6812 35.2397 33.6812 34.7124C33.6812 34.1802 33.5347 33.7871 33.2417 33.5332C32.9536 33.2793 32.4995 33.1523 31.8794 33.1523H30.8467V36.3311ZM35.9736 34.6318C35.9736 35.7842 35.6123 36.6655 34.8896 37.2759C34.1719 37.8862 33.1489 38.1914 31.8208 38.1914H30.8467V42H28.5762V31.292H31.9966C33.2954 31.292 34.2817 31.5728 34.9556 32.1343C35.6343 32.6909 35.9736 33.5234 35.9736 34.6318Z" fill="white"/>
      </symbol>
      <symbol id="png" viewBox="0 0 47 56" fill="none" 
            xmlns="http://www.w3.org/2000/svg">
            <path d="M6 3.5C6 2.40343 6.90343 1.5 8 1.5H31.6716C31.8042 1.5 31.9314 1.55268 32.0251 1.64645L33.0792 0.592373L32.0251 1.64645L44.8536 14.4749C44.9473 14.5686 45 14.6958 45 14.8284V52.5C45 53.5966 44.0966 54.5 43 54.5H8C6.90343 54.5 6 53.5966 6 52.5V3.5Z" fill="#E2E5E7" stroke="white" stroke-width="3"/>
            <path d="M40 45.25C40 46.2125 39.25 47 38.3333 47H1.66667C0.75 47 0 46.2125 0 45.25V27.75C0 26.7875 0.75 26 1.66667 26H38.3333C39.25 26 40 26.7875 40 27.75V45.25Z" fill="#FFBA25"/>
            <path d="M34 15H43L31 3V12C31 13.65 32.35 15 34 15Z" fill="#B0B7BD"/>
            <path d="M7.61816 36.3311H8.36523C9.06348 36.3311 9.58594 36.1943 9.93262 35.9209C10.2793 35.6426 10.4526 35.2397 10.4526 34.7124C10.4526 34.1802 10.3062 33.7871 10.0132 33.5332C9.7251 33.2793 9.271 33.1523 8.65088 33.1523H7.61816V36.3311ZM12.7451 34.6318C12.7451 35.7842 12.3838 36.6655 11.6611 37.2759C10.9434 37.8862 9.92041 38.1914 8.59229 38.1914H7.61816V42H5.34766V31.292H8.76807C10.0669 31.292 11.0532 31.5728 11.7271 32.1343C12.4058 32.6909 12.7451 33.5234 12.7451 34.6318ZM24.2661 42H21.3804L16.7222 33.8994H16.6562C16.749 35.3301 16.7954 36.3506 16.7954 36.9609V42H14.7666V31.292H17.6304L22.2812 39.312H22.3325C22.2593 37.9204 22.2227 36.9365 22.2227 36.3604V31.292H24.2661V42ZM31.0337 35.9868H35.2817V41.5386C34.5933 41.7632 33.9438 41.9194 33.3335 42.0073C32.728 42.1001 32.1079 42.1465 31.4731 42.1465C29.8569 42.1465 28.6216 41.6729 27.7671 40.7256C26.9175 39.7734 26.4927 38.4087 26.4927 36.6313C26.4927 34.9028 26.9858 33.5552 27.9722 32.5884C28.9634 31.6216 30.3354 31.1382 32.0884 31.1382C33.187 31.1382 34.2466 31.3579 35.2671 31.7974L34.5127 33.6138C33.7314 33.2231 32.9185 33.0278 32.0737 33.0278C31.0923 33.0278 30.3062 33.3574 29.7153 34.0166C29.1245 34.6758 28.8291 35.562 28.8291 36.6753C28.8291 37.8374 29.0659 38.7261 29.5396 39.3413C30.0181 39.9517 30.7114 40.2568 31.6196 40.2568C32.0933 40.2568 32.5742 40.208 33.0625 40.1104V37.8765H31.0337V35.9868Z" fill="white"/>
      </symbol>
      <symbol id="jpg" viewBox="0 0 50 56" fill="none" 
            xmlns="http://www.w3.org/2000/svg">
            <path d="M9 3.5C9 2.40343 9.90343 1.5 11 1.5H34.6716C34.8042 1.5 34.9314 1.55268 35.0251 1.64645L36.0792 0.592373L35.0251 1.64645L47.8536 14.4749C47.9473 14.5686 48 14.6958 48 14.8284V52.5C48 53.5966 47.0966 54.5 46 54.5H11C9.90343 54.5 9 53.5966 9 52.5V3.5Z" fill="#E2E5E7" stroke="white" stroke-width="3"/>
            <path d="M42.5 45.5C42.5 46.4625 41.7125 47.25 40.75 47.25H2.25C1.2875 47.25 0.5 46.4625 0.5 45.5V28C0.5 27.0375 1.2875 26.25 2.25 26.25H40.75C41.7125 26.25 42.5 27.0375 42.5 28V45.5Z" fill="#7D79CF"/>
            <path d="M37 15H46L34 3V12C34 13.65 35.35 15 37 15Z" fill="#B0B7BD"/>
            <path d="M9.22705 45.1494C8.71436 45.1494 8.26758 45.0957 7.88672 44.9883V43.0986C8.27734 43.1963 8.63379 43.2451 8.95605 43.2451C9.4541 43.2451 9.81055 43.0889 10.0254 42.7764C10.2402 42.4688 10.3477 41.9854 10.3477 41.3262V31.292H12.6182V41.3115C12.6182 42.5615 12.3325 43.5137 11.7612 44.168C11.1899 44.8223 10.3452 45.1494 9.22705 45.1494ZM17.584 36.3311H18.3311C19.0293 36.3311 19.5518 36.1943 19.8984 35.9209C20.2451 35.6426 20.4185 35.2397 20.4185 34.7124C20.4185 34.1802 20.272 33.7871 19.979 33.5332C19.6909 33.2793 19.2368 33.1523 18.6167 33.1523H17.584V36.3311ZM22.7109 34.6318C22.7109 35.7842 22.3496 36.6655 21.627 37.2759C20.9092 37.8862 19.8862 38.1914 18.5581 38.1914H17.584V42H15.3135V31.292H18.7339C20.0327 31.292 21.019 31.5728 21.6929 32.1343C22.3716 32.6909 22.7109 33.5234 22.7109 34.6318ZM28.7974 35.9868H33.0454V41.5386C32.3569 41.7632 31.7075 41.9194 31.0972 42.0073C30.4917 42.1001 29.8716 42.1465 29.2368 42.1465C27.6206 42.1465 26.3853 41.6729 25.5308 40.7256C24.6812 39.7734 24.2563 38.4087 24.2563 36.6313C24.2563 34.9028 24.7495 33.5552 25.7358 32.5884C26.7271 31.6216 28.0991 31.1382 29.8521 31.1382C30.9507 31.1382 32.0103 31.3579 33.0308 31.7974L32.2764 33.6138C31.4951 33.2231 30.6821 33.0278 29.8374 33.0278C28.856 33.0278 28.0698 33.3574 27.479 34.0166C26.8882 34.6758 26.5928 35.562 26.5928 36.6753C26.5928 37.8374 26.8296 38.7261 27.3032 39.3413C27.7817 39.9517 28.4751 40.2568 29.3833 40.2568C29.8569 40.2568 30.3379 40.208 30.8262 40.1104V37.8765H28.7974V35.9868Z" fill="white"/>
      </symbol>
      <symbol id="epub" viewBox="0 0 49 56" fill="none" 
            xmlns="http://www.w3.org/2000/svg">
            <path d="M8.5 3.5C8.5 2.40343 9.40343 1.5 10.5 1.5H34.1716C34.3042 1.5 34.4314 1.55268 34.5251 1.64645L35.5792 0.592373L34.5251 1.64645L47.3536 14.4749C47.4473 14.5686 47.5 14.6958 47.5 14.8284V52.5C47.5 53.5966 46.5966 54.5 45.5 54.5H10.5C9.40343 54.5 8.5 53.5966 8.5 52.5V3.5Z" fill="#E2E5E7" stroke="white" stroke-width="3"/>
            <path d="M44 45.25C44 46.2125 43.175 47 42.1667 47H1.83333C0.825 47 0 46.2125 0 45.25V27.75C0 26.7875 0.825 26 1.83333 26H42.1667C43.175 26 44 26.7875 44 27.75V45.25Z" fill="#87D534"/>
            <path d="M36.5 15H45.5L33.5 3V12C33.5 13.65 34.85 15 36.5 15Z" fill="#B0B7BD"/>
            <path d="M10.0146 42H3.84766V31.292H10.0146V33.1523H6.11816V35.5034H9.74365V37.3638H6.11816V40.125H10.0146V42ZM14.5264 36.3311H15.2734C15.9717 36.3311 16.4941 36.1943 16.8408 35.9209C17.1875 35.6426 17.3608 35.2397 17.3608 34.7124C17.3608 34.1802 17.2144 33.7871 16.9214 33.5332C16.6333 33.2793 16.1792 33.1523 15.5591 33.1523H14.5264V36.3311ZM19.6533 34.6318C19.6533 35.7842 19.292 36.6655 18.5693 37.2759C17.8516 37.8862 16.8286 38.1914 15.5005 38.1914H14.5264V42H12.2559V31.292H15.6763C16.9751 31.292 17.9614 31.5728 18.6353 32.1343C19.314 32.6909 19.6533 33.5234 19.6533 34.6318ZM30.3906 31.292V38.2207C30.3906 39.0117 30.2124 39.7051 29.856 40.3008C29.5044 40.8965 28.9941 41.353 28.3252 41.6704C27.6562 41.9878 26.8652 42.1465 25.9521 42.1465C24.5752 42.1465 23.5059 41.7949 22.7441 41.0918C21.9824 40.3838 21.6016 39.417 21.6016 38.1914V31.292H23.8647V37.8472C23.8647 38.6724 24.0308 39.2778 24.3628 39.6636C24.6948 40.0493 25.2441 40.2422 26.0107 40.2422C26.7529 40.2422 27.29 40.0493 27.6221 39.6636C27.959 39.2729 28.1274 38.6626 28.1274 37.8325V31.292H30.3906ZM33.0127 31.292H36.3452C37.8638 31.292 38.9648 31.5093 39.6484 31.9438C40.3369 32.3735 40.6812 33.0596 40.6812 34.002C40.6812 34.6416 40.5298 35.1665 40.2271 35.5767C39.9292 35.9868 39.5312 36.2334 39.0332 36.3164V36.3896C39.7119 36.541 40.2002 36.8242 40.498 37.2393C40.8008 37.6543 40.9521 38.2061 40.9521 38.8945C40.9521 39.8711 40.5981 40.6328 39.8901 41.1797C39.187 41.7266 38.23 42 37.019 42H33.0127V31.292ZM35.2832 35.5327H36.6016C37.2168 35.5327 37.6611 35.4375 37.9346 35.2471C38.2129 35.0566 38.3521 34.7417 38.3521 34.3022C38.3521 33.8921 38.2007 33.5991 37.8979 33.4233C37.6001 33.2427 37.1265 33.1523 36.4771 33.1523H35.2832V35.5327ZM35.2832 37.3345V40.125H36.7627C37.3877 40.125 37.8491 40.0054 38.147 39.7661C38.4448 39.5269 38.5938 39.1606 38.5938 38.6675C38.5938 37.7788 37.959 37.3345 36.6895 37.3345H35.2832Z" fill="white"/>
      </symbol>
      <symbol id="mobi" viewBox="0 0 53 56" fill="none" 
            xmlns="http://www.w3.org/2000/svg">
            <path d="M12 3.5C12 2.40343 12.9034 1.5 14 1.5H37.6716C37.8042 1.5 37.9314 1.55268 38.0251 1.64645L39.0792 0.592373L38.0251 1.64645L50.8536 14.4749C50.9473 14.5686 51 14.6958 51 14.8284V52.5C51 53.5966 50.0966 54.5 49 54.5H14C12.9034 54.5 12 53.5966 12 52.5V3.5Z" fill="#E2E5E7" stroke="white" stroke-width="3"/>
            <path d="M46 45.25C46 46.2125 45.1375 47 44.0833 47H1.91667C0.8625 47 0 46.2125 0 45.25V27.75C0 26.7875 0.8625 26 1.91667 26H44.0833C45.1375 26 46 26.7875 46 27.75V45.25Z" fill="#009EE2"/>
            <path d="M40 15H49L37 3V12C37 13.65 38.35 15 40 15Z" fill="#B0B7BD"/>
            <path d="M6.88135 42L4.30322 33.5991H4.2373C4.33008 35.3081 4.37646 36.4482 4.37646 37.0195V42H2.34766V31.292H5.43848L7.97266 39.4805H8.0166L10.7046 31.292H13.7954V42H11.6787V36.9316C11.6787 36.6924 11.6812 36.4165 11.686 36.104C11.6958 35.7915 11.73 34.9614 11.7886 33.6138H11.7227L8.96143 42H6.88135ZM26.2173 36.6313C26.2173 38.4038 25.7778 39.7661 24.8989 40.7183C24.02 41.6704 22.7603 42.1465 21.1196 42.1465C19.479 42.1465 18.2192 41.6704 17.3403 40.7183C16.4614 39.7661 16.022 38.3989 16.022 36.6167C16.022 34.8345 16.4614 33.4746 17.3403 32.5371C18.2241 31.5947 19.4888 31.1235 21.1343 31.1235C22.7798 31.1235 24.0371 31.5972 24.9062 32.5444C25.7803 33.4917 26.2173 34.854 26.2173 36.6313ZM18.4023 36.6313C18.4023 37.8276 18.6294 38.7285 19.0835 39.334C19.5376 39.9395 20.2163 40.2422 21.1196 40.2422C22.9312 40.2422 23.8369 39.0386 23.8369 36.6313C23.8369 34.2192 22.936 33.0132 21.1343 33.0132C20.231 33.0132 19.5498 33.3184 19.0908 33.9287C18.6318 34.5342 18.4023 35.4351 18.4023 36.6313ZM28.4365 31.292H31.769C33.2876 31.292 34.3887 31.5093 35.0723 31.9438C35.7607 32.3735 36.105 33.0596 36.105 34.002C36.105 34.6416 35.9536 35.1665 35.6509 35.5767C35.353 35.9868 34.9551 36.2334 34.457 36.3164V36.3896C35.1357 36.541 35.624 36.8242 35.9219 37.2393C36.2246 37.6543 36.376 38.2061 36.376 38.8945C36.376 39.8711 36.022 40.6328 35.314 41.1797C34.6108 41.7266 33.6538 42 32.4429 42H28.4365V31.292ZM30.707 35.5327H32.0254C32.6406 35.5327 33.085 35.4375 33.3584 35.2471C33.6367 35.0566 33.7759 34.7417 33.7759 34.3022C33.7759 33.8921 33.6245 33.5991 33.3218 33.4233C33.0239 33.2427 32.5503 33.1523 31.9009 33.1523H30.707V35.5327ZM30.707 37.3345V40.125H32.1865C32.8115 40.125 33.2729 40.0054 33.5708 39.7661C33.8687 39.5269 34.0176 39.1606 34.0176 38.6675C34.0176 37.7788 33.3828 37.3345 32.1133 37.3345H30.707ZM38.5146 42V31.292H40.7852V42H38.5146Z" fill="white"/>
      </symbol>
      <symbol id="fb2" viewBox="0 0 47 56" fill="none" 
            xmlns="http://www.w3.org/2000/svg">
            <path d="M6 3.5C6 2.40343 6.90343 1.5 8 1.5H31.6716C31.8042 1.5 31.9314 1.55268 32.0251 1.64645L33.0792 0.592373L32.0251 1.64645L44.8536 14.4749C44.9473 14.5686 45 14.6958 45 14.8284V52.5C45 53.5966 44.0966 54.5 43 54.5H8C6.90343 54.5 6 53.5966 6 52.5V3.5Z" fill="#E2E5E7" stroke="white" stroke-width="3"/>
            <path d="M40 45.25C40 46.2125 39.25 47 38.3333 47H1.66667C0.75 47 0 46.2125 0 45.25V27.75C0 26.7875 0.75 26 1.66667 26H38.3333C39.25 26 40 26.7875 40 27.75V45.25Z" fill="#545454"/>
            <path d="M34 15H43L31 3V12C31 13.65 32.35 15 34 15Z" fill="#B0B7BD"/>
            <path d="M9.58154 42H7.34766V31.292H13.4854V33.1523H9.58154V35.9136H13.2144V37.7666H9.58154V42ZM15.5801 31.292H18.9126C20.4312 31.292 21.5322 31.5093 22.2158 31.9438C22.9043 32.3735 23.2485 33.0596 23.2485 34.002C23.2485 34.6416 23.0972 35.1665 22.7944 35.5767C22.4966 35.9868 22.0986 36.2334 21.6006 36.3164V36.3896C22.2793 36.541 22.7676 36.8242 23.0654 37.2393C23.3682 37.6543 23.5195 38.2061 23.5195 38.8945C23.5195 39.8711 23.1655 40.6328 22.4575 41.1797C21.7544 41.7266 20.7974 42 19.5864 42H15.5801V31.292ZM17.8506 35.5327H19.1689C19.7842 35.5327 20.2285 35.4375 20.502 35.2471C20.7803 35.0566 20.9194 34.7417 20.9194 34.3022C20.9194 33.8921 20.7681 33.5991 20.4653 33.4233C20.1675 33.2427 19.6938 33.1523 19.0444 33.1523H17.8506V35.5327ZM17.8506 37.3345V40.125H19.3301C19.9551 40.125 20.4165 40.0054 20.7144 39.7661C21.0122 39.5269 21.1611 39.1606 21.1611 38.6675C21.1611 37.7788 20.5264 37.3345 19.2568 37.3345H17.8506ZM32.3965 42H24.9111V40.4253L27.5991 37.708C28.395 36.8926 28.915 36.3286 29.1592 36.0161C29.4033 35.6987 29.5791 35.4058 29.6865 35.1372C29.7939 34.8687 29.8477 34.5903 29.8477 34.3022C29.8477 33.8726 29.728 33.5527 29.4888 33.3428C29.2544 33.1328 28.9395 33.0278 28.5439 33.0278C28.1289 33.0278 27.7261 33.123 27.3354 33.3135C26.9448 33.5039 26.5371 33.7749 26.1123 34.1265L24.8818 32.6689C25.4092 32.2197 25.8462 31.9023 26.1929 31.7168C26.5396 31.5312 26.918 31.3896 27.3281 31.292C27.7383 31.1895 28.1973 31.1382 28.7051 31.1382C29.374 31.1382 29.9648 31.2603 30.4775 31.5044C30.9902 31.7485 31.3882 32.0903 31.6714 32.5298C31.9546 32.9692 32.0962 33.4722 32.0962 34.0386C32.0962 34.5317 32.0083 34.9956 31.8325 35.4302C31.6616 35.8599 31.3931 36.3018 31.0269 36.7559C30.6655 37.21 30.0259 37.8569 29.1079 38.6968L27.731 39.9932V40.0957H32.3965V42Z" fill="white"/>
      </symbol>
      <symbol id="djvu" viewBox="0 0 50 56" fill="none" 
            xmlns="http://www.w3.org/2000/svg">
            <path d="M9 3.5C9 2.40343 9.90343 1.5 11 1.5H34.6716C34.8042 1.5 34.9314 1.55268 35.0251 1.64645L36.0792 0.592373L35.0251 1.64645L47.8536 14.4749C47.9473 14.5686 48 14.6958 48 14.8284V52.5C48 53.5966 47.0966 54.5 46 54.5H11C9.90343 54.5 9 53.5966 9 52.5V3.5Z" fill="#E2E5E7" stroke="white" stroke-width="3"/>
            <path d="M44 45.25C44 46.2125 43.175 47 42.1667 47H1.83333C0.825 47 0 46.2125 0 45.25V27.75C0 26.7875 0.825 26 1.83333 26H42.1667C43.175 26 44 26.7875 44 27.75V45.25Z" fill="#7D79CF"/>
            <path d="M37 15H46L34 3V12C34 13.65 35.35 15 37 15Z" fill="#B0B7BD"/>
            <path d="M13.2319 36.5435C13.2319 38.3062 12.729 39.6562 11.7231 40.5938C10.7222 41.5312 9.27441 42 7.37988 42H4.34766V31.292H7.70947C9.45752 31.292 10.8149 31.7534 11.7817 32.6763C12.7485 33.5991 13.2319 34.8882 13.2319 36.5435ZM10.8735 36.6021C10.8735 34.3022 9.85791 33.1523 7.82666 33.1523H6.61816V40.125H7.59229C9.77979 40.125 10.8735 38.9507 10.8735 36.6021ZM14.3306 45.1494C13.8179 45.1494 13.3711 45.0957 12.9902 44.9883V43.0986C13.3809 43.1963 13.7373 43.2451 14.0596 43.2451C14.5576 43.2451 14.9141 43.0889 15.1289 42.7764C15.3438 42.4688 15.4512 41.9854 15.4512 41.3262V31.292H17.7217V41.3115C17.7217 42.5615 17.436 43.5137 16.8647 44.168C16.2935 44.8223 15.4487 45.1494 14.3306 45.1494ZM26.5254 31.292H28.8179L25.1777 42H22.7021L19.0693 31.292H21.3618L23.376 37.6641C23.4883 38.04 23.603 38.4795 23.7202 38.9824C23.8423 39.4805 23.918 39.8271 23.9473 40.0225C24.001 39.5732 24.1841 38.7871 24.4966 37.6641L26.5254 31.292ZM38.8887 31.292V38.2207C38.8887 39.0117 38.7104 39.7051 38.354 40.3008C38.0024 40.8965 37.4922 41.353 36.8232 41.6704C36.1543 41.9878 35.3633 42.1465 34.4502 42.1465C33.0732 42.1465 32.0039 41.7949 31.2422 41.0918C30.4805 40.3838 30.0996 39.417 30.0996 38.1914V31.292H32.3628V37.8472C32.3628 38.6724 32.5288 39.2778 32.8608 39.6636C33.1929 40.0493 33.7422 40.2422 34.5088 40.2422C35.251 40.2422 35.7881 40.0493 36.1201 39.6636C36.457 39.2729 36.6255 38.6626 36.6255 37.8325V31.292H38.8887Z" fill="white"/>
      </symbol>
      <symbol id="txt" viewBox="0 0 47 56" fill="none" 
            xmlns="http://www.w3.org/2000/svg">
            <path d="M6 3.5C6 2.40343 6.90343 1.5 8 1.5H31.6716C31.8042 1.5 31.9314 1.55268 32.0251 1.64645L33.0792 0.592373L32.0251 1.64645L44.8536 14.4749C44.9473 14.5686 45 14.6958 45 14.8284V52.5C45 53.5966 44.0966 54.5 43 54.5H8C6.90343 54.5 6 53.5966 6 52.5V3.5Z" fill="#E2E5E7" stroke="white" stroke-width="3"/>
            <path d="M40 45.25C40 46.2125 39.25 47 38.3333 47H1.66667C0.75 47 0 46.2125 0 45.25V27.75C0 26.7875 0.75 26 1.66667 26H38.3333C39.25 26 40 26.7875 40 27.75V45.25Z" fill="#009EE2"/>
            <path d="M11.4785 42H9.20801V33.1816H6.30029V31.292H14.3862V33.1816H11.4785V42ZM24.6914 42H22.0986L19.6084 37.9497L17.1182 42H14.6865L18.2388 36.4775L14.9136 31.292H17.4185L19.7256 35.1445L21.9888 31.292H24.4351L21.0732 36.6021L24.6914 42ZM30.1699 42H27.8994V33.1816H24.9917V31.292H33.0776V33.1816H30.1699V42Z" fill="white"/>
      </symbol>
      <symbol id="xml" viewBox="0 0 50 56" fill="none" 
            xmlns="http://www.w3.org/2000/svg">
            <path d="M9 3.5C9 2.40343 9.90343 1.5 11 1.5H34.6716C34.8042 1.5 34.9314 1.55268 35.0251 1.64645L36.0792 0.592373L35.0251 1.64645L47.8536 14.4749C47.9473 14.5686 48 14.6958 48 14.8284V52.5C48 53.5966 47.0966 54.5 46 54.5H11C9.90343 54.5 9 53.5966 9 52.5V3.5Z" fill="#E2E5E7" stroke="white" stroke-width="3"/>
            <path d="M42.5 45.5C42.5 46.4625 41.7125 47.25 40.75 47.25H2.25C1.2875 47.25 0.5 46.4625 0.5 45.5V28C0.5 27.0375 1.2875 26.25 2.25 26.25H40.75C41.7125 26.25 42.5 27.0375 42.5 28V45.5Z" fill="#87D534"/>
            <path d="M37 15H46L34 3V12C34 13.65 35.35 15 37 15Z" fill="#B0B7BD"/>
            <path d="M16.0049 42H13.4121L10.9219 37.9497L8.43164 42H6L9.55225 36.4775L6.22705 31.292H8.73193L11.0391 35.1445L13.3022 31.292H15.7485L12.3867 36.6021L16.0049 42ZM21.8862 42L19.3081 33.5991H19.2422C19.335 35.3081 19.3813 36.4482 19.3813 37.0195V42H17.3525V31.292H20.4434L22.9775 39.4805H23.0215L25.7095 31.292H28.8003V42H26.6836V36.9316C26.6836 36.6924 26.686 36.4165 26.6909 36.104C26.7007 35.7915 26.7349 34.9614 26.7935 33.6138H26.7275L23.9663 42H21.8862ZM31.5029 42V31.292H33.7734V40.125H38.1167V42H31.5029Z" fill="white"/>
      </symbol>
      <symbol id="html" viewBox="0 0 53 56" fill="none" 
            xmlns="http://www.w3.org/2000/svg">
            <path d="M12 3.5C12 2.40343 12.9034 1.5 14 1.5H37.6716C37.8042 1.5 37.9314 1.55268 38.0251 1.64645L39.0792 0.592373L38.0251 1.64645L50.8536 14.4749C50.9473 14.5686 51 14.6958 51 14.8284V52.5C51 53.5966 50.0966 54.5 49 54.5H14C12.9034 54.5 12 53.5966 12 52.5V3.5Z" fill="#E2E5E7" stroke="white" stroke-width="3"/>
            <path d="M48 45.25C48 46.2125 47.1 47 46 47H2C0.9 47 0 46.2125 0 45.25V27.75C0 26.7875 0.9 26 2 26H46C47.1 26 48 26.7875 48 27.75V45.25Z" fill="#7D79CF"/>
            <path d="M40 15H49L37 3V12C37 13.65 38.35 15 40 15Z" fill="#B0B7BD"/>
            <path d="M12.1221 42H9.85889V37.3784H5.61816V42H3.34766V31.292H5.61816V35.4888H9.85889V31.292H12.1221V42ZM18.9629 42H16.6924V33.1816H13.7847V31.292H21.8706V33.1816H18.9629V42ZM28.0522 42L25.4741 33.5991H25.4082C25.501 35.3081 25.5474 36.4482 25.5474 37.0195V42H23.5186V31.292H26.6094L29.1436 39.4805H29.1875L31.8755 31.292H34.9663V42H32.8496V36.9316C32.8496 36.6924 32.8521 36.4165 32.8569 36.104C32.8667 35.7915 32.9009 34.9614 32.9595 33.6138H32.8936L30.1323 42H28.0522ZM37.6689 42V31.292H39.9395V40.125H44.2827V42H37.6689Z" fill="white"/>
      </symbol>
      <symbol id="chm" viewBox="0 0 47 56" fill="none" 
            xmlns="http://www.w3.org/2000/svg">
            <path d="M6 3.5C6 2.40343 6.90343 1.5 8 1.5H31.6716C31.8042 1.5 31.9314 1.55268 32.0251 1.64645L33.0792 0.592373L32.0251 1.64645L44.8536 14.4749C44.9473 14.5686 45 14.6958 45 14.8284V52.5C45 53.5966 44.0966 54.5 43 54.5H8C6.90343 54.5 6 53.5966 6 52.5V3.5Z" fill="#E2E5E7" stroke="white" stroke-width="3"/>
            <path d="M40 45.25C40 46.2125 39.25 47 38.3333 47H1.66667C0.75 47 0 46.2125 0 45.25V27.75C0 26.7875 0.75 26 1.66667 26H38.3333C39.25 26 40 26.7875 40 27.75V45.25Z" fill="#FFBA25"/>
            <path d="M34 15H43L31 3V12C31 13.65 32.35 15 34 15Z" fill="#B0B7BD"/>
            <path d="M7.896 33.0278C7.0415 33.0278 6.37988 33.3501 5.91113 33.9946C5.44238 34.6343 5.20801 35.5278 5.20801 36.6753C5.20801 39.063 6.104 40.2568 7.896 40.2568C8.64795 40.2568 9.55859 40.0688 10.6279 39.6929V41.5972C9.74902 41.9634 8.76758 42.1465 7.68359 42.1465C6.12598 42.1465 4.93457 41.6753 4.10938 40.7329C3.28418 39.7856 2.87158 38.4282 2.87158 36.6606C2.87158 35.5474 3.07422 34.5732 3.47949 33.7383C3.88477 32.8984 4.46582 32.2563 5.22266 31.812C5.98438 31.3628 6.87549 31.1382 7.896 31.1382C8.93604 31.1382 9.98096 31.3896 11.0308 31.8926L10.2983 33.7383C9.89795 33.5479 9.49512 33.3818 9.08984 33.2402C8.68457 33.0986 8.28662 33.0278 7.896 33.0278ZM21.6875 42H19.4243V37.3784H15.1836V42H12.9131V31.292H15.1836V35.4888H19.4243V31.292H21.6875V42ZM28.9312 42L26.353 33.5991H26.2871C26.3799 35.3081 26.4263 36.4482 26.4263 37.0195V42H24.3975V31.292H27.4883L30.0225 39.4805H30.0664L32.7544 31.292H35.8452V42H33.7285V36.9316C33.7285 36.6924 33.731 36.4165 33.7358 36.104C33.7456 35.7915 33.7798 34.9614 33.8384 33.6138H33.7725L31.0112 42H28.9312Z" fill="white"/>
      </symbol>
      <symbol id="defaultIcon" viewBox="0 0 43 56" fill="none" 
            xmlns="http://www.w3.org/2000/svg">
            <path d="M2 3.5C2 2.40343 2.90343 1.5 4 1.5H27.6716C27.8042 1.5 27.9314 1.55268 28.0251 1.64645L29.0792 0.592373L28.0251 1.64645L40.8536 14.4749C40.9473 14.5686 41 14.6958 41 14.8284V52.5C41 53.5966 40.0966 54.5 39 54.5H4C2.90343 54.5 2 53.5966 2 52.5V3.5Z" fill="#E2E5E7" stroke="white" stroke-width="3"/>
      </symbol>
      <symbol id="ok-green" viewBox="0 0 37 28" fill="none" 
            xmlns="http://www.w3.org/2000/svg">
            <path d="M0.426923 15.4C0.142308 15.12 0 14.7 0 14.42C0 14.14 0.142308 13.72 0.426923 13.44L2.41923 11.48C2.98846 10.92 3.84231 10.92 4.41154 11.48L4.55385 11.62L12.3808 19.88C12.6654 20.16 13.0923 20.16 13.3769 19.88L32.4462 0.42H32.5885C33.1577 -0.14 34.0115 -0.14 34.5808 0.42L36.5731 2.38C37.1423 2.94 37.1423 3.78 36.5731 4.34L13.8038 27.58C13.5192 27.86 13.2346 28 12.8077 28C12.3808 28 12.0962 27.86 11.8115 27.58L0.711538 15.82L0.426923 15.4Z" fill="#87D534"/>
      </symbol>

      <symbol id="ok-gray" viewBox="0 0 17 13" fill="none" 
            xmlns="http://www.w3.org/2000/svg">
            <path d="M0.196154 7.15C0.0653846 7.02 0 6.825 0 6.695C0 6.565 0.0653846 6.37 0.196154 6.24L1.11154 5.33C1.37308 5.07 1.76538 5.07 2.02692 5.33L2.09231 5.395L5.68846 9.23C5.81923 9.36 6.01538 9.36 6.14615 9.23L14.9077 0.195H14.9731C15.2346 -0.065 15.6269 -0.065 15.8885 0.195L16.8038 1.105C17.0654 1.365 17.0654 1.755 16.8038 2.015L6.34231 12.805C6.21154 12.935 6.08077 13 5.88462 13C5.68846 13 5.55769 12.935 5.42692 12.805L0.326923 7.345L0.196154 7.15Z" fill="#49494A"/>
      </symbol>

      <symbol id="clean" viewBox="0 0 15 15" fill="none" 
            xmlns="http://www.w3.org/2000/svg">
            <path d="M1.14306 6.31214e-05L0 1.17578L12.9541 14.5L14.0972 13.3243L1.14306 6.31214e-05Z" fill="#49494A"/>
            <path d="M12.9541 0.000517442L0 13.3247L1.14306 14.5004L14.0971 1.17623L12.9541 0.000517442Z" fill="#49494A"/>
      </symbol>

      <symbol id="trash" viewBox="0 0 36 43" fill="none" 
            xmlns="http://www.w3.org/2000/svg">
            <path fill-rule="evenodd" clip-rule="evenodd" d="M0 9.00012H36V12.5741H0V9.00012ZM1.80695 12.5892L5.39503 12.5741V43H1.80695V12.5887V12.5892ZM5.39503 39.3542H34.162V43H5.39503V39.3538V39.3542ZM30.5909 12.5736H34.1634V39.3538H30.5909V12.5736ZM7.17035 3.64674H10.8323V9.00012H7.17035V3.64674ZM25.1706 3.64674H28.8326V9.00012H25.1706V3.64674ZM11.5027 0H24.5002L28.8326 3.64674H7.16889L11.5027 0ZM9.01326 14.4136H12.6106V37.6876H9.01326V14.4136ZM16.1933 14.4136H19.7906V37.6876H16.1933V14.4136ZM23.3739 14.4136H26.9712V37.6876H23.3739V14.4136Z" fill="#EA6E55" fill-opacity="0.8"/>
      </symbol>

      <symbol id="aim" viewBox="0 0 27 27" fill="none">
            <line x1="13.75" y1="2.18557e-08" x2="13.75" y2="26.5" stroke="#EA6E55"/>
            <line y1="12.75" x2="26.5" y2="12.75" stroke="#EA6E55"/>
            <circle cx="13.594" cy="12.7337" r="8.44805" stroke="#EA6E55"/>
            <circle cx="13.594" cy="12.7339" r="4.66234" stroke="#EA6E55"/>
      </symbol>

      <symbol id="freeLimit" viewBox="0 0 80 80" fill="none">
            <path d="M8 0C5.79086 0 4 1.79086 4 4V70C4 72.2091 5.79086 74 8 74H52V63.8284C52 62.2371 52.6321 60.711 53.7574 59.5858L57 56.3431V55.9782C55.1958 54.8231 54 52.8012 54 50.5C54 46.9101 56.9101 44 60.5 44H66V20L46 0H8Z" fill="#F8DCD7"/>
            <path d="M46 0L66 20H49C47.3431 20 46 18.6569 46 17V0Z" fill="white"/>
            <path d="M35 40L44 31M26 31L35 40L26 31ZM44 49L35 40L44 49ZM35 40L26 49L35 40Z" stroke="#F06144" stroke-width="4" stroke-linecap="round"/>
            <path d="M56 63.8284V78C56 79.1046 56.8954 80 58 80H78C79.1046 80 80 79.1046 80 78V63.8284C80 63.298 79.7893 62.7893 79.4142 62.4142L75.5858 58.5858C75.2107 58.2107 75 57.702 75 57.1716V53H75.5C76.8807 53 78 51.8807 78 50.5C78 49.1193 76.8807 48 75.5 48H60.5C59.1193 48 58 49.1193 58 50.5C58 51.8807 59.1193 53 60.5 53H61V57.1716C61 57.702 60.7893 58.2107 60.4142 58.5858L56.5858 62.4142C56.2107 62.7893 56 63.298 56 63.8284Z" fill="white"/>
      </symbol>


      <symbol id="unlock" viewBox="0 0 15 20" fill="none">
            <path fill-rule="evenodd" clip-rule="evenodd" d="M13.0458 19.9746H1.37344C1.00255 19.9677 0.649575 19.8138 0.392078 19.5468C0.134581 19.2798 -0.00636233 18.9214 0.000220657 18.5505V12.8524C-0.00623721 12.4816 0.134744 12.1234 0.392221 11.8564C0.649698 11.5894 1.00261 11.4356 1.37344 11.4286H13.0458C13.4168 11.4353 13.7701 11.589 14.0279 11.856C14.2857 12.1229 14.427 12.4814 14.4206 12.8524V18.5505C14.4271 18.9217 14.2859 19.2802 14.0281 19.5472C13.7703 19.8143 13.4169 19.968 13.0458 19.9746ZM7.2184 12.8513C6.82641 12.8627 6.455 13.0293 6.18575 13.3144C5.9165 13.5995 5.77142 13.9798 5.78239 14.3718C5.77984 14.6332 5.84451 14.8909 5.97017 15.1201C6.09584 15.3494 6.2783 15.5424 6.50004 15.6809C6.57921 15.7259 6.64106 15.7961 6.67578 15.8803C6.71049 15.9645 6.71607 16.0578 6.69163 16.1456L6.00747 18.2355C5.99037 18.2714 5.98294 18.3112 5.98591 18.3509C5.98888 18.3906 6.00216 18.4288 6.02441 18.4618C6.04666 18.4948 6.07713 18.5214 6.11282 18.539C6.1485 18.5566 6.18816 18.5646 6.22788 18.5622H8.20914C8.24884 18.5646 8.28847 18.5566 8.32412 18.5389C8.35977 18.5213 8.39021 18.4947 8.41244 18.4617C8.43466 18.4287 8.44791 18.3905 8.45086 18.3508C8.45382 18.3112 8.44639 18.2714 8.42931 18.2355L7.74539 16.1456C7.72095 16.0578 7.72658 15.9644 7.76139 15.8802C7.79619 15.7959 7.85817 15.7258 7.93745 15.6809C8.1589 15.5422 8.34107 15.349 8.46655 15.1198C8.59203 14.8907 8.65663 14.6331 8.65416 14.3718C8.66526 13.9798 8.52025 13.5995 8.25103 13.3144C7.9818 13.0292 7.61038 12.8627 7.2184 12.8513ZM11.5374 6.05375C11.5374 3.49069 9.6004 1.41269 7.21136 1.41269C5.35377 1.41269 3.7749 2.66858 3.15937 4.42921H1.81588C2.62932 1.84506 4.73356 0.00012207 7.21043 0.00012207C10.3888 0.00012207 12.9675 3.03818 12.9675 6.78593V9.97928H11.5365V6.05375H11.5374ZM7.21136 20.0001C7.09894 20.0001 6.9891 19.9877 6.87855 19.9802H7.54162C7.43154 19.9868 7.32145 19.9992 7.21136 19.9992V20.0001Z" fill="#474747"/>
      </symbol>

      <symbol id="gear" viewBox="0 0 24 24" fill="none">
            <path fill-rule="evenodd" clip-rule="evenodd" d="M20.9998 12C20.9998 12.408 20.9638 12.792 20.9158 13.176L23.4478 15.156C23.6758 15.336 23.7358 15.66 23.5918 15.924L21.1918 20.076C21.0478 20.34 20.7358 20.448 20.4598 20.34L17.4718 19.14C16.8478 19.608 16.1758 20.016 15.4438 20.316L14.9878 23.496C14.9518 23.784 14.6998 24 14.3998 24H9.59981C9.29981 24 9.04781 23.784 9.01181 23.496L8.55581 20.316C7.82381 20.016 7.15181 19.62 6.52781 19.14L3.53981 20.34C3.27581 20.436 2.95181 20.34 2.80781 20.076L0.407808 15.924C0.263808 15.66 0.323808 15.336 0.551808 15.156L3.08381 13.176C3.03581 12.792 2.99981 12.396 2.99981 12C2.99981 11.604 3.03581 11.208 3.08381 10.824L0.551808 8.844C0.323808 8.664 0.251808 8.34 0.407808 8.076L2.80781 3.924C2.95181 3.66 3.26381 3.552 3.53981 3.66L6.52781 4.86C7.15181 4.392 7.82381 3.984 8.55581 3.684L9.01181 0.504C9.04781 0.216 9.29981 0 9.59981 0H14.3998C14.6998 0 14.9518 0.216 14.9878 0.504L15.4438 3.684C16.1758 3.984 16.8478 4.38 17.4718 4.86L20.4598 3.66C20.7238 3.564 21.0478 3.66 21.1918 3.924L23.5918 8.076C23.7358 8.34 23.6758 8.664 23.4478 8.844L20.9158 10.824C20.9638 11.208 20.9998 11.592 20.9998 12ZM7.79981 12C7.79981 14.316 9.68376 16.2 11.9998 16.2C14.3158 16.2 16.1998 14.316 16.1998 12C16.1998 9.684 14.3158 7.8 11.9998 7.8C9.68376 7.8 7.79981 9.684 7.79981 12Z" fill="white"/>
      </symbol>

      <symbol id="image" viewBox="0 0 24 24" fill="none">
            <rect x="1" y="3" width="22" height="18" rx="1" stroke="currentColor" stroke-width="2"/>
            <path d="M4 18L8 12.75L10.8571 16.2617L14.8571 11L20 18H4Z" fill="currentColor"/>
            <circle cx="6" cy="8" r="2" fill="currentColor"/>
      </symbol>

      <symbol id="keyboard" viewBox="0 0 24 24" fill="none">
            <path d="M20 5H4C2.9 5 2.01 5.9 2.01 7L2 17C2 18.1 2.9 19 4 19H20C21.1 19 22 18.1 22 17V7C22 5.9 21.1 5 20 5Z" stroke="currentColor" stroke-width="2"/>
            <path d="M5 9C5 8.44772 5.44772 8 6 8C6.55228 8 7 8.44772 7 9C7 9.55228 6.55228 10 6 10C5.44772 10 5 9.55228 5 9Z" fill="currentColor"/>
            <path d="M5 12C5 11.4477 5.44772 11 6 11C6.55228 11 7 11.4477 7 12C7 12.5523 6.55228 13 6 13C5.44772 13 5 12.5523 5 12Z" fill="currentColor"/>
            <path d="M7 15C7 14.4477 7.44772 14 8 14H16C16.5523 14 17 14.4477 17 15C17 15.5523 16.5523 16 16 16H8C7.44772 16 7 15.5523 7 15Z" fill="currentColor"/>
            <path d="M17 9C17 8.44772 17.4477 8 18 8C18.5523 8 19 8.44772 19 9C19 9.55228 18.5523 10 18 10C17.4477 10 17 9.55228 17 9Z" fill="currentColor"/>
            <path d="M17 12C17 11.4477 17.4477 11 18 11C18.5523 11 19 11.4477 19 12C19 12.5523 18.5523 13 18 13C17.4477 13 17 12.5523 17 12Z" fill="currentColor"/>
            <path d="M14 9C14 8.44772 14.4477 8 15 8C15.5523 8 16 8.44772 16 9C16 9.55228 15.5523 10 15 10C14.4477 10 14 9.55228 14 9Z" fill="currentColor"/>
            <path d="M14 12C14 11.4477 14.4477 11 15 11C15.5523 11 16 11.4477 16 12C16 12.5523 15.5523 13 15 13C14.4477 13 14 12.5523 14 12Z" fill="currentColor"/>
            <path d="M8 9C8 8.44772 8.44772 8 9 8C9.55228 8 10 8.44772 10 9C10 9.55228 9.55228 10 9 10C8.44772 10 8 9.55228 8 9Z" fill="currentColor"/>
            <path d="M8 12C8 11.4477 8.44772 11 9 11C9.55228 11 10 11.4477 10 12C10 12.5523 9.55228 13 9 13C8.44772 13 8 12.5523 8 12Z" fill="currentColor"/>
            <path d="M11 9C11 8.44772 11.4477 8 12 8C12.5523 8 13 8.44772 13 9C13 9.55228 12.5523 10 12 10C11.4477 10 11 9.55228 11 9Z" fill="currentColor"/>
            <path d="M11 12C11 11.4477 11.4477 11 12 11C12.5523 11 13 11.4477 13 12C13 12.5523 12.5523 13 12 13C11.4477 13 11 12.5523 11 12Z" fill="currentColor"/>
      </symbol>

      <svg id="plus" viewBox="0 0 24 24" fill="none">
            <rect x="11" y="2" width="2" height="20" rx="1" fill="currentColor"/>
            <rect x="2" y="11" width="20" height="2" rx="1" fill="currentColor"/>
      </svg>
</svg>
