<svg width="19" height="22" viewBox="0 0 19 22" fill="none" xmlns="http://www.w3.org/2000/svg">
<path d="M12.8006 13.8617C12.5102 13.8617 12.2743 13.6266 12.2734 13.3359C12.2725 13.0447 12.5079 12.8078 12.7991 12.807C14.1238 12.8029 15.3841 12.0031 16.3477 10.5548C17.2726 9.16478 17.816 7.34695 17.8988 5.38905H15.5761C15.2848 5.38905 15.0487 5.15298 15.0487 4.86171C15.0487 4.57043 15.2848 4.33437 15.5761 4.33437H18.4373C18.7286 4.33437 18.9647 4.57043 18.9647 4.86171C18.9647 7.22459 18.3471 9.45386 17.2259 11.1392C16.0611 12.8896 14.4902 13.8565 12.8024 13.8617C12.8019 13.8617 12.8013 13.8617 12.8006 13.8617Z" fill="#FACF36"/>
<path d="M7.12886 13.8617C7.12817 13.8617 7.12776 13.8617 7.12721 13.8617C5.43944 13.8565 3.86839 12.8896 2.7037 11.1392C1.58241 9.45386 0.964844 7.22459 0.964844 4.86171C0.964844 4.57043 1.20091 4.33437 1.49219 4.33437H4.35344C4.64471 4.33437 4.88078 4.57043 4.88078 4.86171C4.88078 5.15298 4.64471 5.38905 4.35344 5.38905H2.03065C2.11346 7.34695 2.65688 9.16478 3.58179 10.5548C4.54543 12.0031 5.80569 12.8029 7.13037 12.807C7.42165 12.8078 7.65703 13.0447 7.65607 13.3359C7.65524 13.6266 7.41931 13.8616 7.12886 13.8617Z" fill="#FACF36"/>
<path d="M15.6134 3.03516H4.31641C4.02527 3.03516 3.78906 3.27123 3.78906 3.5625C3.78906 6.66023 4.39647 9.58095 5.49922 11.7865C6.20578 13.1994 7.06985 14.2251 8.02539 14.8124V17.6835C8.02539 17.9748 8.2616 18.2108 8.55273 18.2108H11.377C11.6683 18.2108 11.9044 17.9748 11.9044 17.6835V14.8124C12.8599 14.2253 13.7241 13.1994 14.4306 11.7865C15.5333 9.58095 16.1407 6.66023 16.1407 3.5625C16.1407 3.27123 15.9046 3.03516 15.6134 3.03516Z" fill="url(#paint0_linear)"/>
<path d="M12.789 17.156H7.14067C6.07129 17.156 5.20117 18.0261 5.20117 19.0955V20.5077C5.20117 20.7988 5.43724 21.0349 5.72852 21.0349H14.2012C14.4924 21.0349 14.7285 20.7988 14.7285 20.5077V19.0955C14.7285 18.0261 13.8585 17.156 12.789 17.156Z" fill="url(#paint1_linear)"/>
<path d="M14.7664 21.035H5.16406C4.87292 21.035 4.63672 20.799 4.63672 20.5078C4.63672 20.2165 4.87292 19.9805 5.16406 19.9805H14.7664C15.0577 19.9805 15.2937 20.2165 15.2937 20.5078C15.2937 20.799 15.0577 21.035 14.7664 21.035Z" fill="#FACF36"/>
<path d="M13.3449 11.108C13.3982 10.964 13.6018 10.964 13.6551 11.108L14.2329 12.6694C14.2496 12.7147 14.2853 12.7504 14.3306 12.7671L15.892 13.3449C16.036 13.3982 16.036 13.6018 15.892 13.6551L14.3306 14.2329C14.2853 14.2496 14.2496 14.2853 14.2329 14.3306L13.6551 15.892C13.6018 16.036 13.3982 16.036 13.3449 15.892L12.7671 14.3306C12.7504 14.2853 12.7147 14.2496 12.6694 14.2329L11.108 13.6551C10.964 13.6018 10.964 13.3982 11.108 13.3449L12.6694 12.7671C12.7147 12.7504 12.7504 12.7147 12.7671 12.6694L13.3449 11.108Z" fill="#FFFCEA"/>
<path d="M2.8139 0.12957C2.87783 -0.0431897 3.12217 -0.04319 3.1861 0.129569L3.87945 2.00331C3.89955 2.05763 3.94237 2.10045 3.99669 2.12055L5.87043 2.8139C6.04319 2.87783 6.04319 3.12217 5.87043 3.1861L3.99669 3.87945C3.94237 3.89955 3.89955 3.94237 3.87945 3.99669L3.1861 5.87043C3.12217 6.04319 2.87783 6.04319 2.8139 5.87043L2.12055 3.99669C2.10045 3.94237 2.05763 3.89955 2.00331 3.87945L0.12957 3.1861C-0.0431897 3.12217 -0.04319 2.87783 0.129569 2.8139L2.00331 2.12055C2.05763 2.10045 2.10045 2.05763 2.12055 2.00331L2.8139 0.12957Z" fill="#FFFCEA"/>
<defs>
<linearGradient id="paint0_linear" x1="10" y1="3" x2="10" y2="17" gradientUnits="userSpaceOnUse">
<stop stop-color="#FFE249"/>
<stop offset="1" stop-color="#F3B71D"/>
</linearGradient>
<linearGradient id="paint1_linear" x1="9.99193" y1="17.147" x2="9.99193" y2="20.7254" gradientUnits="userSpaceOnUse">
<stop stop-color="#F9CD32"/>
<stop offset="1" stop-color="#EFA71B"/>
</linearGradient>
</defs>
</svg>
